<svg viewBox="0 0 430 221" xmlns="http://www.w3.org/2000/svg">
  <g fill-rule="nonzero" fill="none">
    <path d="M.397 122.211s3.009-1.436 8.012-4.458c2.503-1.49 5.509-3.355 8.804-5.692 3.349-2.252 6.937-5.049 10.678-8.236 3.705-3.231 7.489-6.94 11.032-11.18.828-1.097 1.667-2.209 2.516-3.334l.638-.843.568-.892c.382-.593.766-1.19 1.153-1.79.387-.598.776-1.199 1.167-1.803.326-.635.654-1.274.984-1.915.329-.639.66-1.282.993-1.927l.496-.962.482-1.075c2.591-5.751 5.17-11.671 7.947-17.696 2.746-6.025 5.551-12.161 8.516-18.276 3.046-6.079 6.194-12.147 9.897-17.985 1.812-2.927 3.864-5.774 6.118-8.518.598-.676 1.195-1.35 1.789-2.021l.112-.126.207-.211.216-.21.432-.42.861-.838c.518-.536 1.296-1.175 1.961-1.761.688-.598 1.374-1.2 2.079-1.701.703-.522 1.402-1.042 2.099-1.56.745-.461 1.486-.92 2.223-1.377l1.108-.675 1.165-.584c.776-.384 1.548-.766 2.316-1.146.795-.331 1.61-.614 2.41-.909.807-.278 1.583-.618 2.421-.785 1.656-.364 3.249-.898 4.906-1.007 6.571-.861 12.786.234 17.947 2.099 1.27.514 2.48 1.083 3.671 1.605.588.274 1.17.545 1.744.812.538.323 1.07.641 1.595.956 2.089 1.268 4.09 2.408 5.744 3.771 3.466 2.532 6.067 5.14 8.222 7.245 2.102 2.156 3.552 4.026 4.59 5.24 1.029 1.224 1.55 1.896 1.55 1.896.236.306.181.745-.125.981-.247.191-.581.191-.824.024l-.028-.019s-.695-.479-1.999-1.377c-.642-.453-1.433-1.011-2.364-1.667-.937-.638-1.914-1.497-3.183-2.218-1.247-.748-2.584-1.617-4.039-2.548-.363-.233-.733-.47-1.111-.712-.396-.208-.8-.419-1.211-.635-.82-.431-1.679-.856-2.539-1.33-3.423-1.944-7.562-3.422-11.972-4.69-4.471-1.017-9.335-1.402-14.191-.404-1.235.124-2.41.639-3.632.954-1.213.368-2.37.986-3.58 1.456-2.328 1.227-4.668 2.583-6.836 4.384-.579.413-1.071.867-1.577 1.315-.518.472-.992.824-1.583 1.443l-.852.847-.427.425-.214.212-.053.053c-.04.04.153-.153.051-.048l-.089.1-1.44 1.592c-1.878 2.245-3.715 4.698-5.411 7.377-3.451 5.29-6.568 11.131-9.617 17.018-3.102 5.872-6.093 11.857-9.037 17.769-2.911 5.913-5.897 11.759-8.811 17.336l-.543 1.046-.636 1.093c-.423.72-.845 1.438-1.265 2.151-.422.71-.841 1.417-1.259 2.121-.477.657-.953 1.311-1.425 1.961-.473.648-.943 1.293-1.411 1.934l-.703.954-.777.878c-1.032 1.162-2.052 2.309-3.058 3.441-4.235 4.296-8.533 7.964-12.748 10.964-4.255 2.937-8.241 5.452-11.922 7.401-3.664 1.977-6.95 3.495-9.67 4.694-5.481 2.303-8.745 3.301-8.745 3.301l-.012.004c-.367.112-.756-.094-.868-.462-.101-.333.061-.685.367-.83zm11.565 2.954c-.14-.052-.303-.008-.397.117-.115.153-.084.371.069.486 0 0 .064.048.25.146.194.101.53.25.847.373.681.283 1.689.645 3.003 1.009 1.31.396 2.931.72 4.814 1.037 1.884.303 4.036.456 6.402.522 2.362-.008 4.936-.158 7.642-.573 2.683-.504 5.524-1.142 8.338-2.219 2.804-1.079 5.637-2.432 8.27-4.197 1.354-.827 2.581-1.85 3.853-2.819 1.217-1.032 2.423-2.095 3.558-3.22 2.244-2.274 4.331-4.709 6.028-7.326.436-.645.87-1.289 1.301-1.928.386-.665.77-1.328 1.152-1.986.378-.658.754-1.313 1.127-1.963.32-.675.638-1.346.954-2.01.641-1.324 1.248-2.632 1.732-3.955.491-1.318 1.074-2.569 1.451-3.852.391-1.274.772-2.514 1.14-3.713.366-1.197.603-2.384.892-3.504.574-2.244.909-4.336 1.219-6.183.146-.923.283-1.787.41-2.586.084-.805.162-1.544.232-2.211.238-2.666.375-4.19.375-4.19.015-.163-.087-.318-.25-.365-.184-.053-.377.053-.43.238l-.005.016s-.419 1.46-1.154 4.016c-.173.638-.365 1.344-.574 2.113-.244.758-.508 1.578-.791 2.454-.535 1.756-1.147 3.729-1.966 5.823-.393 1.051-.738 2.168-1.21 3.278-.471 1.107-.959 2.251-1.46 3.428-.466 1.189-1.101 2.335-1.66 3.545-.549 1.217-1.214 2.401-1.907 3.592-.339.599-.68 1.203-1.024 1.811-.374.587-.751 1.177-1.13 1.772-.38.593-.762 1.189-1.146 1.788-.424.568-.849 1.139-1.277 1.713-.435.566-.842 1.159-1.301 1.709l-1.416 1.623c-.894 1.131-1.959 2.101-2.95 3.141-1.034.994-2.126 1.925-3.224 2.831-1.147.843-2.25 1.738-3.46 2.455-2.325 1.579-4.806 2.822-7.263 3.89-2.443 1.121-4.956 1.859-7.357 2.485-2.403.655-4.747 1.015-6.925 1.314-2.183.292-4.208.387-6.017.469-1.806.046-3.394.025-4.703-.03-1.307-.064-2.341-.141-3.036-.221-.375-.045-.558-.062-.716-.068-.163-.018-.274-.064-.269-.057l-.041-.018zM55.914 121c-.127.147-.111.369.036.497l.007.006c.012.001.044.039.232.118.098.04.224.089.383.139.12.034.26.075.418.12.623.17 1.542.388 2.73.514 2.368.3 5.846.307 9.918-.663 2.02-.515 4.178-1.265 6.356-2.318 2.147-1.1 4.327-2.465 6.353-4.165 1.989-1.726 3.941-3.659 5.567-5.877.873-1.07 1.563-2.266 2.336-3.415.713-1.182 1.376-2.397 2.026-3.613.571-1.25 1.22-2.471 1.717-3.74.462-1.281 1.007-2.531 1.386-3.816.834-2.549 1.506-5.084 2.032-7.561.427-2.491.885-4.883 1.101-7.175.281-2.286.363-4.454.477-6.447.125-1.993.019-3.827.041-5.441.008-1.616-.116-3.024-.182-4.181-.184-2.309-.29-3.628-.29-3.628-.013-.159-.134-.294-.298-.317-.19-.027-.367.106-.394.296l-.002.014s-.184 1.303-.507 3.584c-.14 1.138-.3 2.519-.569 4.091-.26 1.571-.448 3.352-.844 5.262-.345 1.916-.677 3.994-1.213 6.147-.416 2.178-1.042 4.419-1.652 6.737-.372 1.138-.733 2.297-1.083 3.473-.359 1.173-.833 2.315-1.247 3.489-.908 2.316-1.961 4.593-3.087 6.817-.607 1.084-1.221 2.166-1.875 3.21-.706 1.004-1.338 2.062-2.115 2.985-.369.477-.723.966-1.099 1.429-.395.446-.787.89-1.177 1.331-.766.895-1.612 1.692-2.434 2.481-1.666 1.561-3.445 2.869-5.206 4.012-1.757 1.158-3.568 2.017-5.277 2.748-1.704.768-3.366 1.217-4.845 1.645-1.486.415-2.822.627-3.928.814-1.109.167-1.993.237-2.591.272-.147.006-.277.011-.389.015-.079.012-.145.021-.198.029-.123.017-.237-.03-.228-.02-.135-.046-.289-.01-.386.102zm33.624-10.95c-.081.174-.005.38.168.461.013 0 .036.029.217.084.097.027.226.058.387.082.114.014.245.03.395.048.573.065 1.405.119 2.459.056 2.108-.085 5.143-.585 8.546-2.063 1.689-.748 3.479-1.722 5.185-3.034 1.693-1.316 3.396-2.865 4.837-4.734 1.438-1.86 2.759-3.93 3.733-6.179 1.026-2.231 1.761-4.598 2.33-6.982.214-1.201.509-2.394.648-3.594.11-1.202.31-2.396.337-3.58.142-2.37.142-4.687.013-6.918-.206-2.221-.38-4.362-.732-6.36-.296-2.008-.75-3.865-1.119-5.584-.374-1.718-.9-3.247-1.268-4.618-.379-1.37-.832-2.53-1.165-3.493-.7-1.918-1.13-2.997-1.13-2.997-.056-.14-.199-.233-.357-.218-.192.018-.333.188-.316.38l.001.014s.108 1.161.35 3.164c.129.999.3 2.208.416 3.603.127 1.391.355 2.946.446 4.654.125 1.702.315 3.537.329 5.479.128 1.937.1 3.97.085 6.065-.058 1.044-.12 2.101-.156 3.171-.037 1.07-.203 2.135-.297 3.215-.264 2.15-.678 4.29-1.176 6.393-.301 1.033-.586 2.072-.924 3.081-.384.989-.706 2.003-1.177 2.931-.814 1.924-1.873 3.668-2.982 5.286-1.098 1.634-2.399 3.03-3.691 4.302-1.29 1.284-2.69 2.316-4.019 3.237-1.324.945-2.665 1.623-3.863 2.237-1.203.61-2.309 1.034-3.228 1.384-.922.337-1.669.559-2.173.691-.121.031-.227.058-.319.081-.052.029-.096.053-.131.072-.097.041-.211.006-.199.016-.173-.082-.379-.006-.46.167zm26.385-16.191c-.073.177.01.38.187.453.015-.001.023.025.199.069.095.021.226.043.385.05.102.003.219.006.353.009.513.006 1.256-.02 2.176-.192.925-.152 2.037-.429 3.268-.901 1.239-.457 2.57-1.155 3.962-2.053 1.369-.929 2.737-2.13 4.003-3.583 1.268-1.456 2.335-3.209 3.224-5.108.901-1.906 1.44-3.998 1.865-6.122.301-2.133.525-4.312.423-6.456l-.049-1.608-.153-1.586c-.096-1.059-.262-2.094-.455-3.114-.163-1.027-.366-2.033-.617-3.01-.233-.982-.439-1.96-.763-2.88-.296-.927-.587-1.839-.871-2.732-.327-.873-.648-1.727-.959-2.558-.627-1.661-1.389-3.151-2-4.561-.666-1.387-1.367-2.612-1.939-3.715-.573-1.104-1.186-2.009-1.638-2.777-.947-1.516-1.516-2.36-1.516-2.36-.082-.121-.234-.183-.383-.142-.187.05-.297.243-.247.43l.003.012s.268.986.783 2.676c.26.843.606 1.854.927 3.036.34 1.174.755 2.485 1.145 3.927.37 1.446.874 2.98 1.215 4.644.203.821.411 1.664.623 2.526.171.866.345 1.751.522 2.65.192.896.305 1.813.469 2.733.171.92.293 1.853.375 2.794.113.94.199 1.885.217 2.83l.084 1.418-.008 1.41c.013 1.884-.173 3.727-.445 5.512-.349 1.756-.723 3.482-1.35 5.038-.603 1.56-1.298 3.035-2.153 4.318-.838 1.295-1.775 2.438-2.727 3.443-.951 1.011-1.967 1.802-2.881 2.517-.921.711-1.809 1.218-2.54 1.659-.741.421-1.352.707-1.764.887-.099.041-.187.078-.263.109-.026.034-.049.063-.066.086-.067.055-.181.023-.166.034-.178-.073-.381.011-.455.188zm19.815-18.243c-.119.001-.233.064-.295.175-.093.165-.034.374.131.466 0 0 .013.007.038.021.074.047.346.025.362.018.156-.015.33-.046.557-.106.451-.112 1.079-.32 1.835-.681.767-.343 1.642-.859 2.599-1.537.966-.67 1.947-1.571 2.952-2.64 1.978-2.149 3.796-5.258 4.64-8.917.429-1.821.619-3.754.582-5.693-.065-1.937-.287-3.887-.738-5.763-.429-1.882-1.029-3.7-1.734-5.422-.712-1.72-1.506-3.356-2.385-4.866-.874-1.512-1.788-2.916-2.69-4.215-.942-1.273-1.849-2.454-2.73-3.502-1.781-2.086-3.383-3.698-4.543-4.783-1.17-1.077-1.87-1.656-1.87-1.656-.11-.09-.272-.11-.403-.035-.168.098-.226.313-.129.481 0 0 .45.779 1.238 2.142.787 1.354 1.924 3.269 3.186 5.588.656 1.143 1.31 2.408 1.973 3.748.67 1.334 1.362 2.74 1.978 4.225.609 1.487 1.222 3.014 1.729 4.59.514 1.572.943 3.18 1.259 4.79.307 1.612.501 3.222.528 4.797.041 1.572-.055 3.108-.291 4.565-.222 1.461-.583 2.851-1.045 4.139-.447 1.295-1.012 2.484-1.601 3.563-.57 1.096-1.242 2.023-1.838 2.864-.606.834-1.21 1.513-1.711 2.08-.514.55-.944.969-1.242 1.229-.141.116-.249.205-.322.266-.086.03.103.01.123.068h-.043l-.1.001zm294.232 47.425c-.112.367-.501.574-.868.462l-.012-.004s-3.265-.998-8.745-3.301c-2.721-1.199-6.007-2.717-9.671-4.694-3.681-1.949-7.667-4.464-11.922-7.401-4.215-3-8.513-6.668-12.748-10.964-1.006-1.132-2.026-2.28-3.058-3.441l-.777-.878-.703-.954c-.468-.641-.938-1.286-1.411-1.934-.472-.65-.948-1.304-1.425-1.961-.418-.703-.837-1.41-1.259-2.121-.42-.714-.841-1.431-1.265-2.151l-.636-1.093-.543-1.046c-2.914-5.577-5.9-11.422-8.811-17.336-2.945-5.911-5.936-11.897-9.037-17.769-3.049-5.886-6.166-11.728-9.617-17.018-1.696-2.679-3.534-5.132-5.411-7.377l-1.44-1.592-.089-.1c-.103-.105.091.088.051.048l-.053-.053-.214-.212-.427-.425-.852-.847c-.591-.619-1.065-.971-1.583-1.443-.506-.448-.998-.902-1.577-1.315-2.168-1.801-4.509-3.157-6.836-4.384-1.211-.47-2.367-1.087-3.58-1.456-1.223-.316-2.398-.83-3.632-.954-4.856-.997-9.72-.613-14.191.404-4.409 1.267-8.548 2.746-11.972 4.69-.86.474-1.719.899-2.539 1.33-.411.216-.815.427-1.211.635-.378.242-.748.479-1.111.712-1.455.931-2.791 1.8-4.039 2.548-1.268.721-2.245 1.58-3.183 2.218-.931.656-1.722 1.214-2.364 1.667-1.304.898-1.999 1.377-1.999 1.377l-.027.019c-.244.167-.578.167-.824-.024-.305-.236-.361-.676-.125-.981 0 0 .521-.672 1.55-1.896 1.039-1.214 2.488-3.085 4.59-5.24 2.155-2.105 4.756-4.713 8.222-7.245 1.654-1.363 3.655-2.503 5.744-3.771.525-.315 1.057-.633 1.595-.956.574-.268 1.156-.538 1.744-.812 1.191-.523 2.4-1.091 3.671-1.605 5.161-1.865 11.376-2.96 17.947-2.099 1.657.109 3.25.643 4.906 1.007.837.166 1.613.507 2.421.785.8.295 1.615.577 2.41.909.768.38 1.54.762 2.316 1.146l1.165.584 1.108.675c.738.457 1.479.916 2.223 1.377.697.518 1.396 1.037 2.099 1.56.706.501 1.391 1.102 2.079 1.701.665.586 1.443 1.225 1.961 1.761l.861.838.432.42.216.21.207.211.112.126c.594.671 1.191 1.345 1.789 2.021 2.253 2.744 4.306 5.591 6.118 8.518 3.703 5.838 6.851 11.906 9.897 17.985 2.965 6.115 5.77 12.251 8.516 18.276 2.778 6.025 5.356 11.945 7.947 17.696l.482 1.075.496.962c.332.645.663 1.288.993 1.927.329.641.657 1.28.984 1.915.391.604.78 1.205 1.167 1.803.386.6.771 1.197 1.153 1.79l.568.892.638.843c.849 1.125 1.689 2.237 2.516 3.334 3.543 4.241 7.328 7.949 11.032 11.18 3.741 3.187 7.329 5.983 10.678 8.236 3.295 2.337 6.301 4.202 8.804 5.692 5.003 3.022 8.012 4.458 8.012 4.458.308.145.47.497.367.83zm-11.969 2.139c.005-.007-.106.039-.269.057-.158.006-.341.023-.716.068-.695.08-1.73.157-3.036.221-1.308.055-2.897.076-4.703.03-1.808-.082-3.834-.177-6.017-.469-2.178-.299-4.521-.658-6.925-1.314-2.402-.626-4.914-1.364-7.357-2.485-2.457-1.068-4.939-2.311-7.263-3.89-1.21-.717-2.312-1.613-3.46-2.455-1.098-.906-2.19-1.837-3.224-2.831-.992-1.04-2.056-2.01-2.95-3.141l-1.416-1.623c-.459-.551-.867-1.143-1.301-1.709-.428-.574-.853-1.145-1.277-1.713-.384-.599-.766-1.196-1.146-1.788-.379-.594-.756-1.185-1.13-1.772-.344-.608-.686-1.212-1.024-1.811-.693-1.191-1.358-2.375-1.907-3.592-.56-1.21-1.194-2.356-1.66-3.545-.501-1.177-.989-2.321-1.46-3.428-.472-1.11-.817-2.227-1.21-3.278-.819-2.094-1.431-4.067-1.966-5.823-.282-.876-.546-1.695-.791-2.454-.209-.769-.401-1.475-.574-2.113-.734-2.555-1.154-4.016-1.154-4.016l-.005-.016c-.053-.185-.245-.291-.43-.238-.163.047-.265.202-.25.365 0 0 .136 1.524.375 4.19.07.668.147 1.407.232 2.211.127.799.264 1.663.41 2.586.309 1.846.644 3.939 1.219 6.183.289 1.12.526 2.307.892 3.504.368 1.199.749 2.439 1.14 3.713.376 1.282.96 2.533 1.451 3.852.484 1.323 1.09 2.631 1.732 3.955.315.665.633 1.335.954 2.01.373.65.749 1.305 1.127 1.963.382.658.766 1.32 1.152 1.986.432.64.866 1.283 1.301 1.928 1.697 2.617 3.784 5.052 6.028 7.326 1.134 1.125 2.34 2.188 3.558 3.22 1.272.969 2.499 1.992 3.853 2.819 2.633 1.765 5.466 3.118 8.27 4.197 2.815 1.077 5.656 1.715 8.338 2.219 2.706.415 5.28.565 7.642.573 2.366-.066 4.517-.219 6.402-.522 1.882-.316 3.504-.641 4.814-1.037 1.314-.364 2.322-.726 3.003-1.009.317-.123.653-.272.847-.373.185-.098.243-.145.25-.146.153-.115.184-.333.069-.486-.094-.125-.257-.169-.397-.117l-.041.018zm-44.296-4.282c.009-.01-.105.037-.228.02-.053-.008-.119-.018-.198-.029-.112-.005-.242-.01-.389-.015-.598-.035-1.482-.105-2.591-.272-1.107-.187-2.442-.399-3.928-.814-1.479-.428-3.142-.877-4.845-1.645-1.709-.731-3.52-1.589-5.277-2.748-1.761-1.144-3.54-2.452-5.206-4.012-.822-.789-1.668-1.585-2.434-2.481-.39-.441-.783-.885-1.177-1.331-.376-.463-.729-.952-1.099-1.429-.777-.923-1.409-1.981-2.115-2.985-.653-1.044-1.267-2.126-1.875-3.21-1.127-2.224-2.179-4.501-3.087-6.817-.414-1.174-.888-2.316-1.247-3.489-.35-1.176-.711-2.334-1.083-3.473-.61-2.318-1.237-4.559-1.652-6.737-.536-2.153-.868-4.231-1.213-6.147-.395-1.91-.584-3.692-.844-5.262-.269-1.571-.429-2.952-.569-4.091-.323-2.281-.507-3.584-.507-3.584l-.002-.014c-.027-.19-.203-.323-.394-.296-.164.023-.286.158-.298.317 0 0-.105 1.32-.29 3.628-.066 1.157-.191 2.565-.182 4.181.021 1.615-.085 3.448.041 5.441.114 1.993.197 4.162.477 6.447.215 2.292.674 4.684 1.101 7.175.526 2.477 1.198 5.011 2.032 7.561.38 1.284.924 2.534 1.386 3.816.497 1.269 1.146 2.49 1.717 3.74.65 1.216 1.313 2.431 2.026 3.613.773 1.15 1.463 2.345 2.336 3.415 1.626 2.218 3.578 4.152 5.567 5.877 2.026 1.7 4.206 3.064 6.353 4.165 2.178 1.054 4.336 1.803 6.356 2.318 4.072.969 7.551.962 9.918.663 1.187-.126 2.107-.344 2.73-.514.158-.045.297-.085.418-.12.158-.05.285-.099.383-.139.188-.08.221-.118.232-.118l.007-.006c.147-.127.163-.35.036-.497-.1-.112-.254-.148-.386-.102zm-33.702-11.016c.011-.01-.102.025-.199-.016-.035-.02-.079-.044-.131-.072-.092-.023-.198-.05-.319-.081-.504-.132-1.251-.353-2.173-.691-.918-.35-2.025-.774-3.228-1.384-1.198-.613-2.539-1.292-3.863-2.237-1.329-.921-2.73-1.953-4.019-3.237-1.293-1.271-2.593-2.668-3.691-4.302-1.109-1.618-2.168-3.363-2.982-5.286-.471-.928-.793-1.942-1.177-2.931-.337-1.009-.623-2.048-.924-3.081-.498-2.103-.912-4.243-1.176-6.393-.094-1.08-.26-2.145-.297-3.215-.036-1.07-.098-2.126-.156-3.171-.015-2.094-.043-4.128.085-6.065.015-1.942.204-3.777.329-5.479.091-1.707.319-3.262.446-4.654.116-1.395.287-2.604.416-3.603.242-2.003.35-3.164.35-3.164l.001-.014c.018-.192-.123-.362-.316-.38-.158-.015-.301.078-.357.218 0 0-.43 1.079-1.13 2.997-.333.963-.786 2.123-1.165 3.493-.369 1.372-.894 2.901-1.268 4.618-.369 1.718-.823 3.575-1.119 5.584-.352 1.997-.526 4.138-.732 6.36-.129 2.232-.129 4.549.013 6.918.027 1.184.227 2.378.337 3.58.139 1.2.434 2.393.648 3.594.569 2.384 1.305 4.75 2.33 6.982.974 2.249 2.294 4.319 3.733 6.179 1.44 1.869 3.144 3.419 4.837 4.734 1.706 1.312 3.496 2.285 5.185 3.034 3.403 1.479 6.438 1.979 8.546 2.063 1.054.063 1.887.009 2.459-.056.149-.018.281-.034.395-.048.161-.024.29-.056.387-.082.181-.055.204-.084.217-.084.174-.081.249-.287.168-.461-.08-.172-.286-.248-.46-.167zm-26.378-16.21c.014-.011-.1.022-.166-.034-.018-.023-.04-.052-.066-.086-.076-.032-.164-.068-.263-.109-.413-.18-1.024-.466-1.764-.887-.731-.441-1.619-.948-2.54-1.659-.915-.715-1.93-1.506-2.881-2.517-.951-1.005-1.889-2.148-2.727-3.443-.856-1.283-1.55-2.758-2.153-4.318-.627-1.556-1.002-3.282-1.35-5.038-.271-1.785-.458-3.628-.445-5.512l-.008-1.41.084-1.418c.017-.945.104-1.89.217-2.83.082-.94.203-1.874.375-2.794.163-.92.277-1.837.469-2.733.177-.9.352-1.785.522-2.65.213-.862.421-1.705.624-2.526.341-1.664.844-3.198 1.215-4.644.39-1.442.805-2.753 1.145-3.927.321-1.182.667-2.193.927-3.036.516-1.69.783-2.676.783-2.676l.003-.012c.051-.187-.06-.38-.247-.43-.149-.04-.301.022-.383.142 0 0-.568.845-1.516 2.36-.452.768-1.065 1.673-1.638 2.777-.571 1.104-1.273 2.329-1.939 3.715-.611 1.41-1.374 2.9-2 4.561-.312.831-.632 1.685-.959 2.558-.285.893-.575 1.805-.871 2.732-.324.921-.53 1.899-.763 2.88-.251.977-.454 1.982-.617 3.01-.193 1.02-.359 2.055-.455 3.114l-.153 1.586-.049 1.608c-.102 2.144.122 4.322.423 6.456.425 2.124.964 4.216 1.865 6.122.889 1.899 1.957 3.653 3.224 5.108 1.266 1.453 2.634 2.654 4.003 3.583 1.392.898 2.723 1.596 3.962 2.053 1.231.472 2.343.749 3.268.901.92.171 1.662.197 2.176.192.133-.003.251-.006.353-.009.16-.007.29-.029.385-.05.176-.045.184-.07.199-.069.177-.074.261-.277.188-.453-.077-.178-.28-.262-.457-.188zm-19.46-18.056h-.043c.02-.057.209-.038.123-.068-.073-.06-.181-.149-.322-.266-.298-.26-.728-.68-1.242-1.229-.501-.567-1.105-1.246-1.711-2.08-.596-.842-1.267-1.768-1.838-2.864-.589-1.079-1.153-2.268-1.601-3.563-.462-1.288-.823-2.678-1.045-4.139-.236-1.457-.332-2.993-.291-4.565.027-1.575.221-3.185.528-4.797.316-1.609.745-3.218 1.259-4.79.507-1.575 1.119-3.103 1.729-4.59.616-1.485 1.308-2.891 1.978-4.225.663-1.34 1.317-2.605 1.973-3.748 1.261-2.319 2.398-4.234 3.186-5.588.787-1.363 1.238-2.142 1.238-2.142.097-.168.04-.384-.129-.481-.131-.075-.292-.055-.403.035 0 0-.7.579-1.87 1.656-1.161 1.086-2.763 2.697-4.543 4.783-.881 1.049-1.788 2.229-2.73 3.502-.902 1.299-1.815 2.704-2.69 4.215-.879 1.509-1.673 3.146-2.385 4.866-.705 1.722-1.305 3.54-1.734 5.422-.451 1.876-.673 3.826-.738 5.763-.038 1.939.153 3.872.582 5.693.844 3.66 2.661 6.769 4.64 8.917 1.005 1.069 1.986 1.969 2.952 2.64.958.678 1.833 1.194 2.599 1.537.756.36 1.384.568 1.835.681.227.06.401.092.557.106.016.007.288.029.362-.018.025-.014.038-.021.038-.021.165-.093.224-.301.131-.466-.062-.111-.177-.174-.295-.175l-.1-.001z" fill="#F7931B"/>
    <path d="M215.001 217.807c-2.798 0-5.449-1.066-7.468-3.004l-38.727-37.173c-15.347-14.732-31.216-29.966-42.9-47.968-9.3-14.327-19.609-36.513-15.907-60.835 3.477-22.847 20.088-42.295 41.335-48.396 4.33-1.243 8.917-1.874 13.634-1.874 10.74 0 21.283 3.216 29.688 9.055 9.369 6.507 16.614 17.584 20.345 24.12 3.73-6.536 10.976-17.613 20.345-24.12 8.405-5.839 18.948-9.055 29.688-9.055 4.717 0 9.304.631 13.634 1.874 21.247 6.101 37.858 25.549 41.335 48.396 3.703 24.321-6.606 46.507-15.907 60.835-11.685 18.002-27.554 33.235-42.9 47.968l-38.727 37.173c-2.019 1.937-4.67 3.004-7.468 3.004z" fill="#F7931B"/>
    <path d="M265.035 21.629c4.337 0 8.662.57 12.786 1.754 21.296 6.114 36.052 25.579 39.147 45.906 3.094 20.327-4.009 41.079-15.448 58.701-11.438 17.622-27.014 32.606-42.451 47.424l-38.726 37.173c-1.492 1.432-3.417 2.148-5.341 2.148-1.924 0-3.849-.716-5.341-2.148l-38.726-37.173c-15.437-14.818-31.013-29.802-42.452-47.424-11.439-17.622-18.542-38.374-15.447-58.701 3.094-20.327 17.85-39.792 39.146-45.906 4.125-1.184 8.448-1.754 12.786-1.754 9.977 0 20.033 3.015 27.937 8.505 13.093 9.095 22.096 28.151 22.096 28.151s9.003-19.055 22.096-28.15c7.905-5.491 17.96-8.506 27.938-8.506zm0-6.142c-11.36 0-22.526 3.41-31.442 9.603-7.918 5.5-14.358 14.044-18.592 20.707-4.234-6.663-10.674-15.207-18.592-20.707-8.916-6.192-20.082-9.603-31.442-9.603-5.003 0-9.875.67-14.481 1.993-22.378 6.425-39.87 26.874-43.524 50.885-3.848 25.277 6.777 48.195 16.368 62.97 11.882 18.305 27.88 33.661 43.35 48.511l38.726 37.173c2.593 2.489 6 3.86 9.595 3.86 3.594 0 7.001-1.371 9.594-3.86l38.727-37.173c15.471-14.851 31.469-30.207 43.35-48.511 9.591-14.775 20.215-37.693 16.368-62.97-3.655-24.012-21.146-44.461-43.525-50.885-4.605-1.323-9.477-1.993-14.48-1.993z" fill="#FFF"/>
    <path d="M304.022 82.831c.516-4.569.508-9.28-.218-14.048-.616-4.047-1.832-7.974-3.539-11.654-1.707-3.68-3.906-7.114-6.49-10.175-2.584-3.061-5.553-5.748-8.8-7.936-3.247-2.188-6.772-3.875-10.468-4.937-.703-.202-1.42-.379-2.147-.531-.728-.152-1.467-.279-2.216-.38-.749-.102-1.509-.178-2.277-.229-.768-.051-1.546-.077-2.33-.077-1.805 0-3.616.138-5.403.404-1.787.266-3.55.661-5.26 1.176-1.71.515-3.367 1.149-4.942 1.895-1.575.746-3.067 1.602-4.447 2.561-2.039 1.416-4.02 3.27-5.879 5.322-1.858 2.052-3.593 4.303-5.138 6.513M164.813 35.951c-.798 0-1.588.026-2.37.078-.781.052-1.554.13-2.316.233-.762.103-1.514.232-2.254.387s-1.468.335-2.184.54c-3.758 1.079-7.343 2.795-10.645 5.02-3.302 2.225-6.321 4.957-8.948 8.07-2.627 3.113-4.864 6.604-6.599 10.347-1.736 3.743-2.971 7.736-3.598 11.851-.738 4.848-.747 9.638-.222 14.284.525 4.646 1.583 9.149 2.978 13.423 1.395 4.274 3.127 8.319 5 12.05 1.873 3.731 3.887 7.148 5.846 10.166 2.7 4.16 5.689 8.205 8.885 12.155 3.196 3.95 6.601 7.806 10.133 11.589 3.533 3.783 7.193 7.493 10.902 11.151 3.709 3.658 7.466 7.265 11.191 10.841l8.769 8.418 8.769 8.418 8.769 8.418 8.769 8.418 8.77-8.418 8.77-8.418 8.77-8.418 8.77-8.418c3.725-3.576 7.482-7.182 11.191-10.841 3.709-3.658 7.369-7.368 10.902-11.151 3.533-3.783 6.937-7.639 10.133-11.59" stroke="#FFF" stroke-width="3.071" fill="none" stroke-linecap="round" stroke-linejoin="round"/>
    <path d="M242.396 92.659c.445333 0 .858333.111333 1.239.334.381333.222667.680333.518667.897.888.216667.368667.325.740667.325 1.116 0 .258-.035333.536333-.106.835-.07.298667-.157667.591667-.263.879-.105333.287333-.211.583333-.317.888l-6.24 16.839c-.222667.644667-.445333 1.257-.668 1.837-.222667.58-.480333 1.09-.773 1.53-.293333.439333-.683.799667-1.169 1.081-.486667.281333-1.081333.422-1.784.422-.703333 0-1.298333-.138-1.785-.414-.486-.275333-.878333-.638333-1.177-1.089-.299333-.451333-.56-.964-.782-1.538-.222667-.574667-.445333-1.184333-.668-1.829l-6.135-16.699c-.105333-.304667-.213667-.603333-.325-.896-.111333-.293333-.205333-.61-.282-.95-.076-.339333-.114-.626333-.114-.861 0-.597333.240333-1.142333.721-1.635.48-.492 1.083333-.738 1.81-.738.890667 0 1.520667.272333 1.89.817.369333.545333.747333 1.415667 1.134 2.611l5.836 17.279 5.853-17.402c.304667-.914.533333-1.549667.686-1.907.152-.358.404-.680333.756-.967.351333-.287333.831667-.431 1.441-.431zm-26.859 0c.784667 0 1.420333.260667 1.907.782.486.522.729 1.316.729 2.382v20.303c0 1.066-.243 1.863-.729 2.391-.486667.527333-1.122333.791-1.907.791-.75 0-1.368333-.266667-1.855-.8-.486-.533333-.729-1.327333-.729-2.382V95.823c0-1.054667.24-1.845667.72-2.373.480667-.527333 1.102-.791 1.864-.791zm-18.932 0c1.734667 0 3.269667.231333 4.605.694 1.336.463333 2.42 1.046333 3.252 1.749.832.703333 1.459 1.447667 1.881 2.233.422.785333.633 1.482667.633 2.092 0 .656-.243 1.215333-.729 1.678-.486667.463333-1.069667.695-1.749.695-.375333 0-.735667-.088-1.081-.264-.346-.176-.636333-.422-.871-.738-.644-1.008-1.188667-1.769667-1.634-2.285-.445333-.516-1.046-.949667-1.802-1.301-.756-.352-1.72-.528-2.892-.528-1.206667 0-2.284667.208333-3.234.625-.949333.416-1.761 1.019333-2.435 1.81-.673333.791333-1.189 1.761-1.547 2.909-.357333 1.148667-.536 2.420333-.536 3.815 0 3.023333.694333 5.349333 2.083 6.978 1.388667 1.629333 3.325333 2.444 5.81 2.444 1.206667 0 2.340333-.158333 3.401-.475 1.060667-.316667 2.136-.768 3.226-1.354v-4.183h-4.043c-.972667 0-1.708-.146667-2.206-.44-.498-.292667-.747-.790667-.747-1.494 0-.574.208-1.048667.624-1.424.416-.374667.981333-.562 1.696-.562h5.924c.726667 0 1.342.064333 1.846.193.503333.129333.910333.416667 1.221.862.310667.445333.466 1.113333.466 2.004v4.939c0 .656-.064333 1.180333-.193 1.573-.129333.392667-.366667.747333-.712 1.064-.346.316-.788333.620667-1.327.914-1.558667.843333-3.058667 1.458333-4.5 1.845-1.441333.387333-3.011667.581-4.711.581-1.980667 0-3.785333-.305-5.414-.915-1.629333-.609333-3.018-1.494-4.166-2.654-1.148667-1.16-2.030667-2.566333-2.646-4.219-.615333-1.652-.923-3.497667-.923-5.537 0-2.004.299-3.838.897-5.502.597333-1.664 1.476333-3.076 2.637-4.236 1.16-1.16 2.572-2.047667 4.236-2.663 1.664-.615333 3.550667-.923 5.66-.923zm69.152.439c.832.000667 1.450333.185333 1.855.554.404.369333.606.852667.606 1.45 0 .61-.202 1.099333-.606 1.468-.404667.369333-1.023.554-1.855.554h-11.76v6.328h10.829c.796667 0 1.391333.178667 1.784.536.392667.357333.589.829.589 1.415 0 .586-.193333 1.063667-.58 1.433-.386667.369333-.984333.554-1.793.554l-10.829-.001v7.331h12.165c.82 0 1.438.190333 1.854.571.416.380667.624.887333.624 1.52 0 .609333-.208 1.104667-.624 1.486-.416.380667-1.034.571-1.854.571h-14.186c-1.136667 0-1.954-.252-2.452-.756s-.747-1.318333-.747-2.443V96.298c0-.75.111333-1.362333.334-1.837.222667-.474667.571333-.820333 1.046-1.037.474667-.216667 1.081-.325 1.819-.325l13.781-.001zm-94.869-.158c1.793333 0 3.322667.281333 4.588.844.820667.375333 1.541333.891 2.162 1.547.621333.656 1.104667 1.414667 1.45 2.276.346.861333.519 1.755.519 2.681 0 1.453333-.360333 2.774667-1.081 3.964s-1.456 2.121-2.206 2.795c-.75.674-2.007 1.731667-3.771 3.173-1.763333 1.441333-2.973333 2.560333-3.63 3.357-.280667.316667-.567667.697667-.861 1.143h9.176c.914 0 1.611333.187333 2.092.562.48.375333.72.885.72 1.529 0 .574667-.190333 1.061-.571 1.459-.380667.398667-.957667.598-1.731.598h-12.938c-.878667 0-1.564-.243-2.056-.729-.492667-.486667-.739-1.058-.739-1.714 0-.422.158333-.981667.475-1.679.316-.697333.661667-1.245333 1.037-1.644 1.558667-1.616667 2.965-3.002333 4.219-4.157 1.254-1.154 2.150333-1.912667 2.689-2.276.961333-.68 1.761333-1.362667 2.4-2.048.638667-.685333 1.125-1.388333 1.459-2.109.334-.720667.501-1.427.501-2.119 0-.75-.179-1.420667-.537-2.012-.357333-.592-.843667-1.052-1.459-1.38-.614667-.328-1.285333-.492-2.012-.492-1.535333 0-2.742333.673667-3.621 2.021-.117333.176-.313667.656667-.589 1.442-.275333.784667-.586 1.388-.932 1.81-.345333.422-.852.633-1.52.633-.586 0-1.072333-.193333-1.459-.58-.386667-.386667-.58-.914-.58-1.582 0-.808667.181333-1.652333.544-2.531.363333-.879333.905333-1.676333 1.626-2.391.721333-.714667 1.635667-1.291667 2.743-1.731 1.107333-.44 2.405-.66 3.893-.66z" fill="#FFF"/>
  </g>
</svg>
