<svg viewBox="0 0 1996 1996" xmlns="http://www.w3.org/2000/svg">
  <g fill-rule="nonzero" fill="none">
    <path d="M997.60312 80.00156c-506.772 0-917.6 410.828-917.6 917.6 0 506.78628 410.828 917.6 917.6 917.6 506.772 0 917.6-410.81372 917.6-917.6 0-506.772-410.828-917.6-917.6-917.6" fill="#FFF"/>
    <path d="M997.61552 1766.46668c-424.62016 0-768.85272-344.23256-768.85272-768.85272S572.99536 228.7612 997.61552 228.7612s768.85268 344.23256 768.85268 768.85272-344.23252 768.85272-768.85268 768.85272m0-1766.46512C446.65428.00152.00312 446.65268.00312 997.61392c0 550.97672 446.65116 997.6124 997.6124 997.6124 550.9612 0 997.6124-446.63568 997.6124-997.6124 0-550.96124-446.6512-997.6124-997.6124-997.6124" fill="#01A9DA"/>
    <path d="M1153.4558 1268.63256c-207.42636 0-375.58136-168.15504-375.58136-375.5814 0-92.9612 33.92248-177.89148 89.89144-243.44184-123.11628 59.7984-208 186.031-208 332.093 0 203.82948 165.2248 369.0388 369.0388 369.0388 101.65888 0 193.68988-41.08532 260.43408-107.59692-42.124 16.35656-87.876 25.48836-135.78296 25.48836zm182.25428-42.6062c91.3488-284.17056-95.06976-416.48064-95.06976-416.48064-26.4496 10.43412-52.7752 18.34108-78.3566 24.3256 0 0 272.5116 149.1318 150.8062 452.2636l22.62016-60.10856zM1078.738 449.00156s-9.0388 83.17828-46.62016 109.95348l-16.79072-177.84496 63.41088 67.89148z" fill="#01A9DA"/>
    <path d="M1408.08992 1239.7132c-145.36432 198.66664-424.2636 241.89144-622.93024 96.5116-198.66664-145.36432-241.86044-424.27908-96.49612-622.93024 67.14728-91.78292 162.8062-150.27904 265.876-172.4496-141.47288 14.63568-276.4496 86.79068-367.0388 210.58916-169.95348 232.24804-119.44184 558.29456 112.8062 728.23256 232.24808 169.92248 558.27908 119.42636 728.21708-112.8372 129.42636-176.86824 130.85272-408.07756 21.6434-583.3644 68.72868 143.37988 58.3876 318.9768-42.07752 456.24808" fill="#01A9DA"/>
    <path d="M1124.462 381.10388s9.86048 260.8372-260.27904 440.46512c0 0 15.3178 28.093 32.4496 30.69768 0 0 163.76744 35.2248 332.69768-31.41088 0 0 212.68216 150.89924 72.4496 476.57364 0 0 245.06976-221.58136 77.24032-545.6124 0 0 51.6434-34.4186 49.86044-53.2558 0 0-269.90696-242.60464-304.4186-317.45736" fill="#01A9DA"/>
  </g>
</svg>
