<svg viewBox="0 0 2000 2000" xmlns="http://www.w3.org/2000/svg" xmlns:xlink="http://www.w3.org/1999/xlink">
  <defs>
    <rect id="a" width="2000" height="2000" rx="1000"/>
  </defs>
  <g fill="none" fill-rule="evenodd">
    <mask id="b" fill="#fff">
      <use xlink:href="#a"/>
    </mask>
    <use fill="#FFF" xlink:href="#a"/>
    <path d="M1000 1898.14815c-501.147273 0-907.407407-406.26014-907.407407-907.407409 0-501.147273 406.260134-907.407408 907.407407-907.407408 501.14727 0 907.40741 406.260135 907.40741 907.407408 0 501.147269-406.26014 907.407409-907.40741 907.407409z" mask="url(#b)"/>
    <path d="M1004.62963 1902.77778c-501.147273 0-907.407408-406.26014-907.407408-907.40741 0-501.147273 406.260135-907.407407 907.407408-907.407407 501.14727 0 907.40741 406.260134 907.40741 907.407407 0 501.14727-406.26014 907.40741-907.40741 907.40741zm0-46.2963c475.57853 0 861.11111-385.53258 861.11111-861.11111 0-475.578534-385.53258-861.111111-861.11111-861.111111-475.578535 0-861.111111 385.532577-861.111111 861.111111 0 475.57853 385.532576 861.11111 861.111111 861.11111z" fill="#181C42" fill-rule="nonzero" mask="url(#b)"/>
    <path fill="#FFF" mask="url(#b)" d="M453.703704 1484.48148h1101.85185v425.925926H453.703704z"/>
    <path fill="#181C42" mask="url(#b)" d="M907.407407 268.518519h222.222222v1203.7037H907.407407zM1287.03704 638.888889h222.222222v833.333333H1287.03704zM518.518519 842.592593h222.222222v629.62963H518.518519z"/>
    <path d="M683.412905 1753.50839H581.416377l-21.339699 61.30642h-47.56221l99.464699-263.31018h41.051794l99.645544 263.31018h-47.743056l-21.520544-61.30642zm-89.156539-36.89236h76.316551l-38.158276-109.23032-38.158275 109.23032zm304.456017-3.25521h-50.998264v101.45399h-45.753761v-263.31018h92.592593c30.382096 0 53.831418 6.81176 70.348668 20.43547 16.517251 13.62372 24.775753 33.33562 24.775753 59.13629 0 17.60232-4.249813 32.34104-12.749566 44.21658s-20.344976 21.00812-35.536024 27.398l59.136288 109.77286v2.35098h-49.008974l-52.806713-101.45399zm-50.998264-36.71151h47.019676c15.432176 0 27.488383-3.88813 36.168982-11.6645s13.020833-18.41597 13.020833-31.91913c0-14.10597-4.008688-25.01684-12.026186-32.73293-8.017498-7.71608-19.983283-11.69463-35.897714-11.93576h-48.285591v88.25232zm405.729171 52.44502c-2.65241 28.09138-13.02075 50.00354-31.10533 65.73712-18.08458 15.73359-42.13671 23.60026-72.15712 23.60026-20.97811 0-39.45425-4.97318-55.42896-14.9197-15.97471-9.94652-28.30219-24.08242-36.98278-42.40813-8.6806-18.32571-13.20168-39.60492-13.56337-63.83825v-24.59491c0-24.83616 4.40051-46.71818 13.20168-65.6467 8.80116-18.92853 21.43003-33.51654 37.887-43.76447 16.45697-10.24793 35.47564-15.37182 57.05657-15.37182 29.0559 0 52.44494 7.89682 70.16783 23.69068 17.72289 15.79387 28.03094 38.09785 30.92448 66.91262h-45.57292c-2.17015-18.92853-7.68587-32.58218-16.54731-40.96137-8.86145-8.37919-21.85201-12.56872-38.97208-12.56872-19.89304 0-35.17428 7.26386-45.84418 21.79181-10.6699 14.52795-16.12534 35.83729-16.36647 63.92867v23.329c0 28.45307 5.09375 50.15424 15.2814 65.10416 10.18765 14.94992 25.1072 22.42477 44.75911 22.42477 17.96402 0 31.46697-4.03883 40.50926-12.11661 9.04229-8.07778 14.76899-21.52045 17.18027-40.32841h45.57292zm250.56423-140.69734h-82.10359v226.41782h-45.39207v-226.41782h-81.38021v-36.89236h208.87587v36.89236z" fill="#171C40" mask="url(#b)"/>
  </g>
</svg>
