<svg viewBox="0 0 1997 1734" xmlns="http://www.w3.org/2000/svg">
  <g fill-rule="nonzero" fill="none">
    <path d="M600.787671 1038.59589l100.273973-173.356164H1090.41096l-94.417809 163.231884 5.856169 10.12428H801.30137L701.061644 1211.9863H500.513699l100.273972-173.39041z" fill="#0082C6"/>
    <path d="M600.787671 1038.59589L500.513699 1211.9863l-100.273973-173.39041-100.273973-173.356164 100.273973-173.424658 100.273973-173.39041 100.273972 173.39041 100.273973 173.424658-100.273973 173.356164z" fill="#1E323D"/>
    <path d="M901.575342 865.239726H701.061644L600.787671 691.815068l-100.273972-173.39041h200.547945l100.239726 173.39041h200.54795l-4.982882 8.617927 95.291092 164.806731H901.575342z" fill="#2D94D5"/>
    <path d="M1495.47945 1558.80137l-100.27397 173.39041-100.27397-173.39041 100.27397-173.39041-100.27397-173.42466h200.54794l100.27397 173.42466-100.27397 173.39041z" fill="#1E323D"/>
    <path d="M1896.5411 1558.80137l-100.27398 173.39041h-401.06164l100.27397-173.39041 100.27397-173.39041h401.06165l-100.27397 173.39041z" fill="#0082C6"/>
    <path d="M1595.75342 1038.59589h200.5137l100.27398 173.39041 100.27397 173.42466h-401.06165l-100.27397-173.42466 100.27397-173.39041z" fill="#2D94D5"/>
    <path fill="#000" d="M994.109589 1037.73973l100.273971 173.39041 100.23973-173.39041z"/>
    <path d="M1595.71918 1037.73973l-100.27397 173.39041h-200.54795l-100.27397-173.39041 100.27397-173.390415h401.09589l-100.27397 173.390415z" fill="#0082C6"/>
    <path fill="#000" d="M1094.38356 1211.13014l100.23973-173.39041 100.27397 173.39041z"/>
    <path d="M993.688207 696.609589h-3.96218l1.966429-3.412986-1.308499-2.237699h2.597772l99.900731-173.390411 99.90072 173.390411h.34696l101.39041 173.390411-101.39041 173.390415H990.383957l101.390403-173.390415-98.086153-167.739726z" fill="#1E323D"/>
    <path d="M1294.71901 517.876712l.17825-.308219h200.54795l100.27397 173.390411 100.27397 173.390411h-401.09589l-100.27397-173.390411.06498-.112371-100.03074-172.969821h200.06148z" fill="#2D94D5"/>
    <path d="M701.952055 1211.9863l100.239726-173.39041 100.273972 173.39041 100.273977 173.42466-100.273977 173.39041-100.273972 173.39041-100.239726-173.39041 100.239726-173.39041-100.239726-173.42466z" fill="#1E323D"/>
    <path d="M1303.56164 1558.80137l-100.27397 173.39041H802.191781l100.273972-173.39041 100.273977-173.39041h401.09589l-100.27398 173.39041z" fill="#0082C6"/>
    <path d="M1203.28767 1038.59589l100.27397 173.39041 100.27398 173.42466h-401.09589L902.465753 1211.9863l-100.273972-173.39041h401.095889z" fill="#2D94D5"/>
    <path d="M691.541096 173.390411L791.815068 0l100.273973 173.390411 100.239726 173.390411-100.239726 173.390411-100.273973 173.390411-100.273972-173.390411-100.273973-173.390411 100.273973-173.390411z" fill="#1E323D"/>
    <path d="M1293.15068 520.171233h-200.54794L992.328767 693.561644H791.815068l100.273973-173.390411 100.239726-173.390411h401.095893l-100.27398 173.390411z" fill="#0082C6"/>
    <path d="M1192.87671 0l100.27397 173.390411 100.27398 173.390411H992.328767L892.089041 173.390411 791.815068 0h401.061642z" fill="#2D94D5"/>
    <path d="M100.273973 1213.73288l100.273972-173.39041 100.273973 173.39041 100.239726 173.39041-100.239726 173.39041-100.273973 173.39041-100.273972-173.39041L0 1387.12329l100.273973-173.39041z" fill="#1E323D"/>
    <path d="M701.883562 1560.5137l-100.273973 173.39041H200.547945l100.273973-173.39041 100.239726-173.39041h401.09589L701.883562 1560.5137z" fill="#0082C6"/>
    <path d="M401.061644 1040.34247l100.273972 173.39041h200.547946l100.273972 173.39041h-401.09589l-100.239726-173.39041-100.273973-173.39041h200.513699z" fill="#2D94D5"/>
  </g>
</svg>
