<svg viewBox="0 0 2000 2000" xmlns="http://www.w3.org/2000/svg">
  <g fill="none" fill-rule="evenodd">
    <circle fill="#14376B" cx="1000" cy="1000" r="1000"/>
    <g fill-rule="nonzero">
      <path d="M476.433121 997.452229c8.917198 2.547771 15.286625 7.643312 21.656051 11.464968 5.095542 5.095542 10.191083 10.191083 12.738854 16.56051 2.547771 6.369427 5.095541 12.738853 6.369427 19.10828 1.273885 6.369427 1.273885 12.738854 1.273885 17.834395 0 15.286624-2.547771 29.299363-8.917197 42.038217-5.095542 11.464968-12.738854 21.65605-22.929937 30.573248-10.191083 8.917197-20.382165 14.012739-33.121019 19.10828-12.738853 3.821656-26.751592 6.369427-40.764331 6.369427H242.038217c0-2.547771 1.273885-5.095541 1.273885-8.917198 0-3.821656 1.273886-7.643312 1.273886-12.738853 0-3.821656 1.273885-8.917197 1.273885-12.738854 0-3.821656 1.273885-6.369426 1.273885-8.917197h31.847134l26.751593-225.477707h-29.299363l5.09554-42.038216h161.78344c29.299363 0 49.681529 6.369426 62.420383 20.382165 12.738853 12.738854 19.10828 30.573248 19.10828 52.229299 0 7.643313-1.273886 14.012739-2.547771 21.656051-1.273885 7.643312-3.821656 14.012739-7.643312 20.382166-3.821656 6.369427-8.917197 12.738853-15.286624 19.10828-5.095542 3.821656-12.738854 8.917198-22.929937 14.012739zm-123.566879 22.929936c-1.273885 6.369427-1.273885 14.012739-2.54777 22.929937-1.273886 8.917197-2.547771 16.560509-2.547771 25.477707-1.273885 8.917197-2.547771 17.834395-2.547771 25.477707-1.273885 8.917197-1.273885 16.560509-2.54777 22.929936h54.77707c19.10828 0 33.121019-5.095541 42.038216-15.286624 8.917198-10.191083 14.012739-24.203822 14.012739-39.490446 0-11.464968-3.821656-20.382166-10.191083-29.299363-7.643312-8.917198-17.834395-12.738854-33.121019-12.738854h-57.324841zm16.56051-128.66242l-11.464968 89.171975h49.681529c16.560509 0 29.299363-5.095542 38.21656-14.012739 8.917198-10.191083 14.012739-21.656051 14.012739-36.942675 0-11.464969-3.821656-20.382166-10.191083-28.025478-6.369427-6.369427-16.560509-10.191083-31.847134-10.191083h-48.407643zM624.203822 932.484076c11.464968 0 20.382166 2.547771 24.203822 6.369427 3.821656 3.821656 6.369427 10.191083 6.369427 17.834395 0 1.273885 0 6.369427-1.273886 14.012739-1.273885 7.643312-2.547771 16.560509-2.547771 26.751592-1.273885 10.191083-2.54777 21.656051-3.821656 34.394905-1.273885 12.738853-3.821656 24.203821-5.095541 35.668789-1.273885 11.464969-2.547771 21.656051-3.821656 30.573249-1.273885 8.917197-2.547771 15.286624-2.547771 19.10828 5.095542 0 11.464968-1.273885 17.834395-2.547771 6.369427-1.273885 11.464968-3.821656 17.834395-6.369426l12.738854 26.751592c-11.464969 10.191083-24.203822 19.10828-38.216561 24.203822-14.012739 5.095541-25.477707 7.643312-34.394904 7.643312-14.012739 0-24.203822-2.547771-29.299363-8.917198-5.095542-6.369427-7.643313-14.012739-7.643313-25.477707v-5.095541c0-2.547771 0-3.821656 1.273886-6.369427l17.834395-140.127388-38.216561-6.369427 1.273886-29.299363c15.286624-3.821656 28.025477-7.643312 39.490445-8.917198 10.191083-2.54777 19.108281-3.821656 28.025478-3.821656zm5.095541-96.815286c8.917198 0 16.56051 3.821656 22.929937 10.191082 6.369427 5.095542 10.191083 14.01274 10.191083 22.929937 0 11.464968-3.821656 20.382165-10.191083 28.025477-7.643312 7.643313-16.56051 11.464969-28.025478 11.464969-8.917197 0-16.560509-2.547771-22.929936-8.917198-6.369427-6.369427-8.917198-14.012739-8.917198-22.929936 0-12.738854 3.821656-22.929937 11.464968-30.573249 6.369427-6.369426 15.286625-10.191082 25.477707-10.191082zM810.191083 876.43312l-7.643312 61.146498h63.694268c0 2.54777-1.273886 5.095541-1.273886 8.917197s-1.273885 7.643312-1.273885 11.464968c0 3.821656-1.273885 7.643312-1.273885 11.464968 0 3.821656-1.273886 6.369427-1.273886 7.643312H797.45223l-12.738854 103.184714c0 1.273885 0 3.821656-1.273885 5.095541v5.095542c0 7.643312 2.547771 14.012739 6.369427 17.834395 3.821656 3.821656 10.191082 5.095541 19.10828 5.095541 3.821656 0 8.917197 0 16.560509-1.273885 7.643313-1.273886 15.286625-2.547771 22.929937-5.095542l7.643312 43.312102c-5.095542 2.547771-11.464968 3.821656-17.834395 5.095542l-19.10828 3.821656c-6.369427 1.273885-12.738854 1.273885-19.108281 2.54777-6.369426 0-10.191082 1.273886-14.012738 1.273886-22.929937 0-40.764332-5.095542-50.955414-14.012739-10.191083-8.917198-15.286625-22.929937-15.286625-42.038217 0-6.369427 0-12.738853 1.273886-19.10828l14.012739-110.828026h-31.847134l3.821656-33.121019 36.942675-8.917197 22.929936-53.503185 43.312102-5.095541z" fill="#C9D52B"/>
      <path d="M882.802548 1160.509554l5.095542-42.038217h31.847133l26.751593-226.751592h-29.299363l5.095541-42.038217h137.579618c22.929936 0 43.312102 3.821656 58.598726 10.191083 15.286624 6.369427 28.025478 15.286624 38.216561 28.025478 8.917197 11.464968 16.560509 25.477707 20.382165 40.764331 3.821656 15.286624 6.369427 31.847134 6.369427 50.955414 0 24.203822-2.547771 47.133758-8.917198 70.063694-6.369426 21.656051-15.286624 42.038217-26.751592 58.598727-12.738853 16.560509-28.025478 30.573248-48.407643 39.490445-20.382166 10.191083-44.585987 15.286625-72.611465 15.286625H882.802548v-2.547771zm127.388535-268.789809l-28.025477 226.751592h36.942675c8.917197 0 19.10828-1.273885 30.573248-5.095541 11.464968-3.821656 21.656051-10.191083 30.573249-20.382166 10.191082-10.191082 17.834394-24.203821 24.203821-42.038216 6.369427-17.834395 10.191083-40.764331 10.191083-70.063694 0-17.834395-2.547771-33.12102-6.369427-44.585988-3.821656-11.464968-10.191083-20.382165-16.560509-26.751592-6.369427-6.369427-14.012739-11.464968-21.656051-12.738854-7.643312-3.821656-15.286624-5.095541-22.929937-5.095541h-36.942675zM1282.802547 932.484076c11.46497 0 20.38217 2.547771 24.20382 6.369427 3.82166 3.821656 6.36943 10.191083 6.36943 17.834395 0 1.273885 0 6.369427-1.27389 14.012739-1.27388 7.643312-2.54777 16.560509-2.54777 26.751592-1.27388 10.191083-2.54777 21.656051-3.82165 34.394905-1.27389 12.738853-3.82166 24.203821-5.09554 35.668789-1.27389 11.464969-2.54777 21.656051-3.82166 30.573249-1.27389 8.917197-2.54777 15.286624-2.54777 19.10828 5.09554 0 11.46497-1.273885 17.83439-2.547771 6.36943-1.273885 11.46497-3.821656 17.8344-6.369426l12.73885 26.751592c-11.46497 10.191083-24.20382 19.10828-38.21656 24.203822-14.01274 5.095541-25.4777 7.643312-34.3949 7.643312-14.01274 0-24.20382-2.547771-29.299365-8.917198-5.095542-6.369427-7.643312-14.012739-7.643312-25.477707v-5.095541c0-2.547771 0-3.821656 1.273885-6.369427l17.834392-140.127388-38.216558-6.369427 1.273886-29.299363c15.286624-3.821656 28.025482-7.643312 39.490442-8.917198 10.19109-2.54777 20.38217-3.821656 28.02548-3.821656zm5.09554-96.815286c8.9172 0 16.56051 3.821656 22.92994 10.191082 6.36943 6.369427 8.9172 14.01274 8.9172 24.203822 0 11.464968-3.82166 20.382166-10.19109 28.025478-7.64331 7.643312-16.56051 11.464968-28.02547 11.464968-8.9172 0-16.56051-2.547771-22.92994-8.917198-6.36943-6.369426-8.9172-14.012738-8.9172-22.929936 0-12.738853 3.82166-22.929936 11.46497-30.573248 7.64331-7.643312 16.56051-11.464968 26.75159-11.464968zM1484.076437 933.757962c5.09554 0 8.91719 0 14.01274 1.273885 5.09554 0 10.19108 1.273885 14.01273 1.273885 5.09555 1.273886 8.9172 1.273886 12.73886 2.547771 3.82165 1.273885 6.36942 2.547771 8.9172 2.547771 6.36942 2.54777 11.46496 5.095541 14.01273 8.917197s3.82166 8.917198 3.82166 14.012739c0 2.547771 0 6.369427-1.27389 10.191083-1.27388 3.821656-2.54777 8.917197-3.82165 14.012739-1.27389 5.095541-2.54777 10.191082-5.09554 15.286624-2.54777 5.095541-3.82166 10.191083-5.09554 15.286624h-31.84714l1.27389-38.21656c-2.54777-1.273886-6.36943-1.273886-10.19109-2.547771-3.82165 0-7.64331-1.273886-12.73885-1.273886-10.19108 0-19.10828 2.547771-26.75159 7.643313-7.64331 5.095541-14.01274 11.464968-19.10828 20.382165-5.09554 8.917198-8.9172 17.834395-11.46497 29.299363-2.54777 11.464968-3.82166 22.929937-3.82166 35.66879 0 15.286624 3.82166 26.751592 10.19109 35.66879 6.36942 7.643312 17.83439 12.738853 33.12102 12.738853 8.91719 0 17.83439-1.273885 26.75159-2.54777 8.9172-1.273886 19.10828-3.821656 30.57325-7.643312l11.46497 38.21656c-5.09555 2.547771-11.46497 5.095541-19.10829 7.643312-6.36942 2.547771-14.01273 3.821656-21.65605 5.095542l-22.92993 3.821656c-7.64331 1.273885-15.28663 1.273885-22.92994 1.273885-16.56051 0-30.57325-2.547771-42.03822-6.369427-11.46496-3.821656-20.38216-10.191083-26.75159-17.834395-6.36942-7.643312-11.46497-16.560509-15.28662-26.751592-2.54777-10.191083-5.09554-21.656051-5.09554-34.394904 0-17.834395 1.27388-34.394905 5.09554-52.2293 3.82165-17.834395 10.19108-33.121019 19.10828-47.133758 8.9172-14.012739 21.65605-25.477707 38.21656-34.394904 20.38216-7.643312 39.49044-11.464968 63.69427-11.464968zM1700.636947 932.484076c20.38216 0 38.21656 5.095542 50.95541 15.286624 12.73885 10.191083 19.10828 25.477707 19.10828 44.585988 0 22.929936-11.46497 40.764331-33.12102 54.77707-21.65605 14.012739-56.05095 21.656051-104.4586 25.477707V1082.802548c0 5.095541 0 10.191082 1.27389 15.286624 1.27388 5.095541 2.54777 8.917197 6.36942 12.738853 2.54778 3.821656 7.64332 6.369427 12.73886 8.917198 5.09554 2.54777 12.73885 3.821656 21.65605 3.821656 10.19108 0 21.65605-1.273886 33.12102-3.821656 11.46497-2.547771 22.92993-6.369427 33.12102-10.191083l11.46497 34.394904c-12.73886 7.643312-28.02548 12.738854-44.58599 16.56051-16.56051 3.821656-33.12102 6.369427-48.40765 6.369427-17.83439 0-31.84713-2.547771-43.3121-7.643312-11.46497-5.095542-20.38216-11.464969-26.75159-19.108281-6.36943-7.643312-10.19108-17.834395-12.73885-28.025477-2.54777-10.191083-3.82166-21.656051-3.82166-34.394905 0-16.560509 2.54777-33.121019 6.36943-49.681528 3.82165-16.56051 11.46497-31.847134 20.38216-45.859873 10.19109-14.012739 22.92994-25.477707 39.49045-34.394905 16.56051-10.191082 36.94267-15.286624 61.1465-15.286624zm-8.9172 43.312102c-16.56051 0-29.29936 6.369427-39.49045 17.834395-8.91719 11.464968-15.28662 29.299363-17.83439 49.681529 53.50318-2.547771 80.25477-16.56051 80.25477-43.312102 0-6.369427-1.27388-12.738854-5.09554-17.834395-3.82165-3.821656-10.19108-6.369427-17.83439-6.369427z" fill="#45AAE1"/>
      <g fill="#C9D52B">
        <path d="M338.853504 859.872611l8.917197-66.242038 48.407643 1.273885-8.917197 63.694268M420.382166 861.146497l10.191083-66.242039 48.407643 1.273886-10.191083 63.694267M416.56051 1142.675159l-8.917197 66.242038-48.407644-1.273885 8.917198-63.694268M335.031848 1141.401274l-10.191083 66.242038-48.407644-1.273885 10.191083-62.420383"/>
      </g>
      <path fill="#45AAE1" d="M987.261147 861.146497l10.191083-64.968153h47.133758l-8.917198 63.694267M1068.789809 862.420382l10.191083-66.242038 48.407643 1.273885-8.917197 63.694268M1064.968153 1143.949044l-8.917197 66.242039-48.407643-1.273886 8.917197-62.420382M983.439491 1143.949044l-10.191083 64.968153h-48.407643l10.191083-63.694267"/>
    </g>
  </g>
</svg>
