<svg viewBox="0 0 1526 1993" xmlns="http://www.w3.org/2000/svg" xmlns:xlink="http://www.w3.org/1999/xlink">
  <defs>
    <path d="M569.931507 928.082192h250.753425c47.899543 0 83.835616 10.844749 107.808219 32.534246 22.655109 21.842714 35.560842 51.887612 35.805687 83.356612.244844 31.469-12.191825 61.71108-34.504317 83.90366-23.105023 21.23288-59.474886 31.82649-109.109589 31.78082l-250.753425.00015V928.082192zm0-377.808219h239.726027c46.986302 0 81.232877 8.789954 102.739726 26.369863 21.50685 17.579908 32.442923 43.538812 32.808219 77.876712 0 34.292237-10.844748 60.251141-32.534246 77.876712-21.689498 17.625571-55.936073 26.438356-102.739726 26.438356H570.205479l-.273972-208.561643zM174.109589 172.39726H1360.13699v1224.31507l-593.013702 395.06849-593.013699-395.06849V928.082192h212.808219v364.315068c-.1233 9.71438 3.796685 19.04295 10.821918 25.75342 6.734136 6.9908 16.047086 10.90422 25.753425 10.82192h431.027397c43.568515.90544 86.817462-7.62285 126.780822-25 34.7099-15.37362 65.8648-37.76038 91.50685-65.75342 24.12953-26.66826 42.97898-57.6734 55.54794-91.36986 12.44072-32.66329 18.86847-67.30815 18.97261-102.26028 0-53.28767-11.73516-97.305935-35.20548-132.054793-20.39075-31.523016-46.61386-58.862003-77.26028-80.547946a144.588544 144.588544 0 0 0 25-20.547945 241.164638 241.164638 0 0 0 31.23288-37.260274A213.493127 213.493127 0 0 0 1117.53425 720c7.53506-23.379891 11.19074-47.835898 10.82191-72.39726-.47411-29.776563-5.7235-59.284117-15.54794-87.397261-10.89552-32.026208-28.18608-61.504046-50.82192-86.643835-26.12119-28.515268-58.01588-51.140417-93.561642-66.369863-38.90411-17.625571-87.260274-26.438356-145.068494-26.438356H423.493151c-20.092027.258331-36.317011 16.483316-36.575343 36.575342v341.30137H174.109589V172.39726zM4.657534 3.082192V1487.32877l762.465754 507.87671 762.465752-507.87671V3.082192H4.657534z" id="a"/>
  </defs>
  <use fill="#324992" xlink:href="#a" transform="translate(-4 -3)" fill-rule="evenodd"/>
</svg>
