<svg viewBox="0 0 2002 2002" xmlns="http://www.w3.org/2000/svg">
  <g transform="translate(1 1)" fill="none" fill-rule="evenodd">
    <circle stroke="#979797" fill="#1186E6" cx="1000" cy="1000" r="1000"/>
    <g fill="#FFF">
      <path d="M221.843293 969.609277l1560.990387-.125366.19641-193.572921-1022.503136-.635186.079398-380.263267c-13.063101 8.42875-128.307564 134.091099-153.526954 159.394066-6.489762 6.510656-10.668617 11.876305-16.590054 18.896782-25.048057 29.699122-73.418303 76.209778-101.320518 108.290848-11.027999 12.678646-22.766402 21.730046-33.522775 34.304221L354.354785 824.214375c-5.666528 6.368575-9.360635 11.31634-15.173423 17.384037-6.414542 6.686168-12.072712 10.129545-18.345173 16.928542-11.847054 12.841621-20.451316 25.871291-33.443377 37.509402-14.809862 13.276222-21.546176 21.416632-32.962808 34.914334-18.888424 22.323443-29.180944 22.615963-32.586711 38.658587zM217.087756 1223.370247l1022.528204.798161.18805 380.221482c21.26619-14.43795 49.60301-54.17886 68.65859-70.57251l318.53322-339.816126c6.27664-6.673632 12.1354-10.137903 18.39114-16.874217 11.27455-12.143752 20.08358-24.575846 31.83034-36.218136 21.51692-21.320518 98.0234-99.08901 100.48475-110.982031l-1559.93314.075219-.676975 193.363979-.004179.004179z"/>
    </g>
  </g>
</svg>
