<svg viewBox="0 0 2000 1992" xmlns="http://www.w3.org/2000/svg">
  <defs>
    <linearGradient x1="5.160699%" y1="5.039476%" x2="94.871504%" y2="94.699606%" id="a">
      <stop stop-color="#FB312E" offset="0%"/>
      <stop stop-color="#F0005D" offset="100%"/>
    </linearGradient>
  </defs>
  <path d="M392.775576 986.018026L132.962381 726.204832c-166.126417-166.126417-166.126417-435.470555 0-601.596971 166.126416-166.126417 435.470554-166.126417 601.596971 0l716.108998 716.109003 269.62444-269.624433c80.4602-80.460203 80.4602-210.911967 0-291.37217-73.36808-73.368076-189.66297-80.482979-271.03353-17.873077-1.41065 1.230878-3.27608 2.809084-5.59214 4.782731-4.70509 4.009489-11.07083 9.480906-18.76173 16.12506-14.88784 12.861558-34.17973 29.632605-53.95642 46.903195-20.02807 17.490113-39.16131 34.276729-53.76486 47.175696-7.63905 6.747387-13.90861 12.316071-18.50168 16.434416-2.25493 2.021861-4.05509 3.648825-5.32876 4.814762-.32867.300869-51.99288-51.462462-154.99263-155.289993 13.0335-13.033499 162.3497-143.428363 177.11991-154.793728 168.43152-129.604475 408.3896-114.926098 559.92424 36.608538 166.12641 166.126416 166.12641 435.470554 0 601.596971l-269.62443 269.624432 269.62443 269.624436c166.12641 166.12641 166.12641 435.47055 0 601.59697-166.12642 166.12641-435.47056 166.12641-601.59697 0l-725.920244-725.92024-268.180763 268.18076c-80.460204 80.4602-80.460204 210.91197 0 291.37217 73.368076 73.36808 189.66297 80.48298 271.033529 17.87308 1.410651-1.23088 3.276081-2.80909 5.592135-4.78273 4.705091-4.00949 11.070828-9.48091 18.761737-16.12506 14.887833-12.86156 34.179725-29.63261 53.956415-46.9032 20.028069-17.49011 39.161316-34.27673 53.764863-47.17569 7.639044-6.74739 13.908607-12.31608 18.501682-16.43442 2.254925-2.02186 4.055083-3.64883 5.328758-4.81476.328672-.30087 51.992879 51.46246 154.992623 155.28999-13.033499 13.0335-162.349697 143.42836-177.119909 154.79373-168.431517 129.60447-408.389598 114.9261-559.924234-36.60854-166.126416-166.12642-166.126416-435.47055 0-601.59697l268.180764-268.180764zm186.671375-706.297765c-80.460203-80.460203-210.911967-80.460203-291.37217 0-80.460203 80.460203-80.460203 210.911967 0 291.37217L1428.92062 1711.93827c80.4602 80.4602 210.91196 80.4602 291.37217 0 80.4602-80.46021 80.4602-210.91197 0-291.37217L579.446951 279.720261z" fill="url(#a)" fill-rule="nonzero"/>
</svg>
