<svg viewBox="0 0 2000 2000" xmlns="http://www.w3.org/2000/svg">
  <g fill="none" fill-rule="evenodd">
    <path d="M1000 0C448 0 0 448 0 1000s448 1000 1000 1000 1000-448 1000-1000S1552 0 1000 0z" fill="#000E26" fill-rule="nonzero"/>
    <g fill="#FFF">
      <path d="M1142.43 927.52c0-102.94-61.84-137.39-122.8-137.39h-137.4v440.65h79.52v-159.69c9.52 0 39.57 0 41.45-.09l68.21 159.78h87.8l-79.35-177.68c38.68-20.86 62.57-60.92 62.57-125.58zM997.52 992.9h-35.78V867.44h40.2c28.72 0 63.17 10.61 63.17 63.17s-40.64 62.29-67.59 62.29zm-221.31 1.99c16.57-2 56.66-30.81 58.32-84.15 1.32-67.59-28-120.6-114.39-120.6H588v440.65h130.56c47.71 0 120.6-25.85 131.86-107.35 11.26-81.5-31.8-116.62-74.21-128.55zM666 867.44h41.53c32.25 0 49.7 13.25 49.7 51s-30.26 48.59-50.14 48.59H666v-99.59zm48.84 284.94H666V1038h49.37c38.34 0 59.09 15.22 59.09 58.61s-35.99 55.77-59.63 55.77h.01z" fill-rule="nonzero"/>
      <path d="M1477.958904 790h-84.988442L1186 1231h84.988442z"/>
      <path d="M1187 790h83.988442l206.970462 441h-83.988442z"/>
    </g>
    <path d="M1748.42 1162.87l88.46 51.06c35.23037-138.79673 35.61511-284.148708 1.12-423.13l-89.6 51.73s-61.75-65.56-133.7-190.17c-71.95-124.61-97.84-210.87-97.84-210.87l92.49-53.4c-102.964-102.670621-230.20247-177.65842-369.9-218v111.24S1151.83 302 1007.93 302s-231.54-20.71-231.54-20.71V165.7c-143.128458 38.376-273.954072 112.984416-379.86 216.63L499 441.48s-25.89 86.26-97.84 210.87-133.7 190.17-133.7 190.17L164 782.78c-37.177249 144.057632-36.743397 295.2481 1.26 439.09l102.21-59s61.75 65.56 133.7 190.17C473.12 1477.65 499 1563.9 499 1563.9l-99 57.1c105.307266 101.91314 234.850792 175.30622 376.4 213.25v-110.18s87.65-20.71 231.54-20.71 231.54 20.71 231.54 20.71v105.86c138.11563-39.89458 264.07155-113.67308 366.42-214.63l-89-51.39s25.89-86.25 97.84-210.87 133.67-190.17 133.68-190.17zM1000 1669.59c-369.8 0-669.58-299.78-669.58-669.58 0-369.8 299.77-669.58 669.58-669.58 369.81 0 669.57 299.78 669.57 669.57 0 369.79-299.78 669.59-669.57 669.59z" fill="#A0AB5E" fill-rule="nonzero"/>
  </g>
</svg>
