<svg viewBox="0 0 2000 2000" xmlns="http://www.w3.org/2000/svg">
  <g fill="none" fill-rule="evenodd">
    <path d="M1000 1898.83268c496.41158 0 898.83268-402.4211 898.83268-898.83268 0-496.411584-402.4211-898.832685-898.83268-898.832685-496.411584 0-898.832685 402.421101-898.832685 898.832685 0 496.41158 402.421101 898.83268 898.832685 898.83268zM1000 2000C447.71525 2000 0 1552.28475 0 1000S447.71525 0 1000 0s1000 447.71525 1000 1000-447.71525 1000-1000 1000zm-694.13699-280.15564C117.291909 1537.96638 0 1282.68068 0 1000c0-296.791994 129.294529-563.385633 334.63035-746.527679V1719.84436h-28.76734z" fill="#FF0006" fill-rule="nonzero"/>
    <path d="M1202.33463 420.552238c110.61466 6.056985 198.44358 97.670699 198.44358 209.797957 0 112.127257-87.82892 203.740971-198.44358 209.797956v.318775H898.832685V420.233463h303.501945v.318775zM1202.33463 1152.06975c110.61466 6.05698 198.44358 97.6707 198.44358 209.79795 0 112.12726-87.82892 203.74098-198.44358 209.79796v.31878H898.832685v-420.23347h303.501945v.31878z" fill="#FF0006"/>
  </g>
</svg>
