<svg viewBox="0 0 1981 1089" xmlns="http://www.w3.org/2000/svg">
  <g fill-rule="nonzero" fill="none">
    <path d="M355.666667 942.606061c-106.060606 0-93.939394-351.515152-93.939394-351.515152l1018.181817-3.030303s-3.0303-106.060606 0-212.121212 96.9697-103.030303 96.9697-103.030303h106.0606c345.45455 0 700 666.666667 360.60606 666.666667H355.666667v3.030303z" fill="#AED949"/>
    <path d="M1907.18182 588.060606c-100-175.757576-263.63637-315.151515-427.27273-315.151515h-3.0303v315.151515h430.30303z" fill="#88D6F8"/>
    <path d="M1637.484849 766.848485c87.878788 0 160.60606 72.727273 160.60606 160.606061 0 87.878788-72.727272 160.60606-160.60606 160.60606-87.878788 0-160.606061-72.727272-160.606061-160.60606 0-87.878788 72.727273-160.60606 160.606061-160.60606" fill="#C4C4C4"/>
    <path d="M1637.484849 830.484849c51.515151 0 96.969697 42.424242 96.969697 96.969697 0 51.515151-42.424243 96.969697-96.969697 96.969697-51.515152 0-96.969697-42.424243-96.969697-96.969697 0-54.545455 42.424242-96.969697 96.969697-96.969697" fill="#FFF"/>
    <path d="M640.515152 766.848485c87.878788 0 160.60606 72.727273 160.60606 160.606061 0 87.878788-72.727272 160.60606-160.60606 160.60606-87.878788 0-160.60606-72.727272-160.60606-160.60606 0-87.878788 72.727272-160.60606 160.60606-160.60606" fill="#C4C4C4"/>
    <path d="M640.515152 830.484849c51.515151 0 96.969697 42.424242 96.969697 96.969697 0 51.515151-42.424243 96.969697-96.969697 96.969697-51.515152 0-96.969697-42.424243-96.969697-96.969697 0-54.545455 42.424242-96.969697 96.969697-96.969697" fill="#FEFFFF"/>
    <path d="M1073.84848 775.939394h-27.27272c-18.18182 0-30.30303-15.151515-30.30303-30.30303v-27.272728c0-18.181818 15.15151-30.30303 30.30303-30.30303h27.27272c18.18182 0 30.30304 15.151515 30.30304 30.30303v27.272728c0 15.151515-12.12122 30.30303-30.30304 30.30303zm90.9091 78.787879h-27.27273c-18.18182 0-30.30303-15.151515-30.30303-30.303031v-27.272727c0-18.181818 15.15151-30.30303 30.30303-30.30303h27.27273c18.18181 0 30.30303 15.151515 30.30303 30.30303v27.272727c3.0303 18.181819-12.12122 30.303031-30.30303 30.303031zm93.93939-78.787879h-27.27273c-18.18182 0-30.30303-15.151515-30.30303-30.30303v-27.272728c0-18.181818 15.15152-30.30303 30.30303-30.30303h27.27273c18.18182 0 30.30303 15.151515 30.30303 30.30303v27.272728c0 15.151515-15.15152 30.30303-30.30303 30.30303z" fill="#FFF"/>
    <g>
      <path d="M801.121212 106.242424l-651.515151 3.030303C116.272727 136.545454 95.060606 163.818182 89 188.060606 73.848484 263.818182 98.090908 357.757576 176.878787 382c6.060606 9.090909 12.121212 21.212121 21.212121 27.272727 21.212121 21.212121 51.515152 36.363636 84.848485 36.363636 33.333333 0 63.636364-15.151515 84.848485-36.363636l9.090909-9.090909 433.333333-3.030303 9.090909 9.090909c21.212122 21.212121 51.515152 36.363636 84.848485 36.363636h3.030303c33.333334 0 60.606061-15.151515 81.818182-36.363636 6.060606-6.060606 9.090909-9.090909 12.121212-15.151515 187.878789-42.424243 118.181819-266.666667-200-284.848485z" fill="#212121"/>
      <path d="M761.727273 106.242424h36.363637S637.484849.181818 467.787879.181818c-124.242424 0-248.484848 51.515152-321.21212 109.090909h30.30303c72.727272-48.484848 181.818181-87.878788 290.90909-87.878788 121.212121 0 236.363637 54.545455 293.939394 84.848485z" fill="#212121"/>
      <path d="M470.818182 21.39394c-109.090909 0-218.181818 39.393939-290.90909 87.878787l584.848484-3.030303C704.151516 75.939394 589 21.393939 470.818182 21.393939z" fill="#88D6F8"/>
      <path d="M1001.12121 321.393939c0-30.30303-12.12121-54.545454-30.303028-72.727272-18.181818-18.181819-42.424243-30.303031-69.69697-30.303031-27.272727 0-51.515151 12.121212-69.69697 30.303031-18.181818 18.181818-30.30303 42.424242-30.30303 69.696969 0 27.272728 12.121212 51.515152 30.30303 69.69697 18.181819 18.181818 42.424243 30.30303 69.69697 30.30303 27.272727 0 51.515152-12.121212 69.69697-30.30303C989 372.909091 1001.12121 348.666667 1001.12121 321.393939z" fill="#C4C4C4"/>
      <path d="M901.121212 254.727273c36.363636 0 66.666667 30.30303 66.666667 66.666666 0 36.363637-30.303031 66.666667-66.666667 66.666667s-66.666667-30.30303-66.666667-66.666667c0-36.363636 30.303031-66.666666 66.666667-66.666666" fill="#FFF"/>
      <path d="M379.909091 321.393939c0-27.272727-12.121212-51.515151-30.30303-69.696969-18.181819-18.181818-42.424243-30.303031-69.69697-30.303031-27.272727 0-51.515152 12.121213-69.69697 30.303031-18.181818 18.181818-30.30303 42.424242-30.30303 69.696969 0 27.272728 12.121212 51.515152 30.30303 69.69697 18.181818 18.181818 42.424243 30.30303 69.69697 30.30303 27.272727 0 51.515151-12.121212 69.69697-30.30303 18.181818-15.151515 30.30303-42.424242 30.30303-69.69697z" fill="#C4C4C4"/>
      <path d="M279.909091 257.757576c36.363636 0 66.666667 30.30303 66.666667 66.666666 0 36.363637-30.303031 66.666667-66.666667 66.666667s-66.666667-30.30303-66.666667-66.666667c0-36.363636 30.303031-66.666666 66.666667-66.666666" fill="#FFF"/>
      <path d="M1182.93939 269.878788h51.51516c6.0606 0 9.0909 6.060606 9.0909 9.090909l-33.33333 266.666667c0 3.030303-3.0303 9.090909-9.09091 9.090909l-942.42424 6.060606h-3.030303L13.242424 672.909091c-9.090909 6.060606-18.181818-9.090909-9.090909-15.151515l203.030303-193.939394H1089c3.0303 0 6.06061-3.030303 9.09091-6.060606l75.75757-181.818182c3.03031-3.030303 6.06061-6.060606 9.09091-6.060606z" fill="#88D6F8"/>
    </g>
    <path d="M1492.0303 182h-160.60606c-3.0303 0-6.0606 3.030303-6.0606 6.060606v54.545455c0 3.030303 3.0303 6.060606 6.0606 6.060606h160.60606c3.03031 0 6.06061-3.030303 6.06061-6.060606v-54.545455c0-3.030303-3.0303-6.060606-6.06061-6.060606z" fill="#FFB400"/>
  </g>
</svg>
