<svg viewBox="0 0 2000 2000" xmlns="http://www.w3.org/2000/svg">
  <g fill="none" fill-rule="evenodd">
    <circle fill="#FAE57F" cx="1000" cy="1000" r="1000"/>
    <circle fill="#393937" cx="1000" cy="1000" r="872.909699"/>
    <path d="M1446.47292 549.426924L1225.73011 814.76651c-46.32922-44.756676-109.40273-72.291594-178.90737-72.291594-142.227174 0-257.525081 115.297908-257.525081 257.525084 0 142.22718 115.297907 257.52508 257.525081 257.52508 76.17208 0 144.62-33.07104 191.76883-85.63818l218.28895 262.38997c-107.83664 101.90473-253.32289 164.38534-413.40226 164.38534-332.479113 0-602.006688-269.52758-602.006688-602.006692 0-332.479113 269.527575-602.006689 602.006688-602.006689 154.9857 0 296.29219 58.567638 402.99466 154.778095z" fill="#FAE57F"/>
  </g>
</svg>
