<svg xmlns="http://www.w3.org/2000/svg" viewBox="0 0 400.2 400.2"><defs><style>.cls-1{fill:#4ed8b4;}.cls-2{fill:#fcfdfd;}</style></defs><title>Asset 1</title><g id="Layer_2" data-name="Layer 2"><g id="Layer_1-2" data-name="Layer 1"><path class="cls-1" d="M400.1,185.1v31a15.84,15.84,0,0,0-1,3.26,181.61,181.61,0,0,1-7.52,39.15,197.79,197.79,0,0,1-64.71,96.24c-23.67,19.41-50.31,32.88-80.22,39.66-8.83,2-17.7,3.79-26.56,5.68h-43c-.54-1.38-2-1.17-3-1.41-4.27-1.07-4.52-2.09-1.2-5.36,18.76-18.44,37.24-37.17,55.84-55.78q33.73-33.75,67.49-67.48c15.13-15.09,29.18-31,38.92-50.28,12.26-24.25,15-49,2.61-73.9-12-24.07-30.55-41.5-55.56-52-4.8-2-7.67-1.51-11.21,2.16-10.71,11.1-21.74,21.9-32.75,32.7-2.33,2.28-2.5,3.54.78,4.81,13.53,5.23,22.81,15.33,30.12,27.31,6.47,10.61,9,22,5.21,34.41-3.39,11.18-10.08,20.18-18.12,28.24Q182,297.87,107.73,372.14c-2.36,2.36-4.09,2.93-7.24,1.1A199.87,199.87,0,0,1,7.6,252.63C2,232.17.25,211.38.84,190.29c0-1.73.91-3.67-.74-5.19v-6c1.47-1.85,1.9-4,2.29-6.31C4.94,158,7.88,143.35,13.7,129.45,44.88,55,99.94,11.81,180.52,2.06c1.53-.18,3-.11,3.58-2h3c.58.26,1.17.76,1.75.75a323.42,323.42,0,0,1,35.25,1c2,.65,5.25-.33,6,1.62.86,2.34-2.56,3.4-3.7,5.33a8.3,8.3,0,0,1-1.41,1.4Q165,70.14,105,130c-16.79,16.75-32.28,34.46-42.07,56.41-7.61,17.07-10.7,34.95-5.44,53.07,9.6,33,31.83,54.92,63.16,68.09,2.89,1.21,5.13.92,7.56-1.57q16.88-17.33,34.19-34.25c2.4-2.35,2.49-3.4-.73-4.72-15.28-6.24-25.33-17.89-32.67-32.18a39.46,39.46,0,0,1-4.11-20.82c.83-13.59,7.55-24.48,16.63-33.77,23.31-23.83,47.05-47.24,70.61-70.83Q252.56,69,292.9,28.39c2.57-2.59,4.34-2.8,7.6-.9a199.46,199.46,0,0,1,51.87,43.26c25.08,29.35,40,63.32,46,101.35C398.46,176.49,398.56,180.89,400.1,185.1Z"/><path class="cls-2" d="M.1,185.1c1.65,1.52.79,3.46.74,5.19C.25,211.38,2,232.17,7.6,252.63a199.87,199.87,0,0,0,92.89,120.62c3.15,1.83,4.89,1.26,7.24-1.1q74.21-74.37,148.5-148.64c8-8.06,14.73-17.06,18.12-28.24,3.76-12.39,1.25-23.8-5.21-34.41-7.3-12-16.59-22.09-30.12-27.31-3.28-1.27-3.1-2.52-.78-4.81,11-10.8,22-21.6,32.75-32.7,3.54-3.67,6.41-4.18,11.21-2.16,25,10.54,43.55,28,55.56,52,12.42,24.89,9.65,49.65-2.61,73.9-9.74,19.27-23.79,35.19-38.92,50.28q-33.79,33.7-67.49,67.48c-18.59,18.61-37.08,37.33-55.84,55.78-3.32,3.27-3.07,4.29,1.2,5.36,1,.24,2.44,0,3,1.41q-86.39,0-172.78.1c-3.67,0-4.32-.84-4.31-4.37Q.19,290.46.1,185.1Z"/><path class="cls-2" d="M398.34,172.1c-6-38-20.89-72-46-101.35A199.46,199.46,0,0,0,300.5,27.49c-3.26-1.89-5-1.69-7.6.9Q252.62,69,212.14,109.47c-23.55,23.59-47.29,47-70.61,70.83-9.09,9.29-15.8,20.18-16.63,33.77A39.46,39.46,0,0,0,129,234.88c7.34,14.29,17.39,25.94,32.67,32.18,3.22,1.31,3.13,2.37.73,4.72Q145.14,288.72,128.22,306c-2.43,2.49-4.67,2.79-7.56,1.57-31.34-13.16-53.56-35-63.16-68.09-5.27-18.12-2.17-36,5.44-53.07C72.72,164.49,88.21,146.78,105,130Q165,70.17,225,10.24a8.3,8.3,0,0,0,1.41-1.4c1.14-1.93,4.57-3,3.7-5.33-.72-1.95-3.94-1-6-1.62V.1q86,0,172-.1c3.43,0,4.11.67,4.1,4.1q-.21,84-.1,168Z"/><path class="cls-2" d="M184.1.1c-.54,1.85-2.06,1.78-3.58,2C99.94,11.81,44.88,55,13.7,129.45,7.88,143.35,4.94,158,2.39,172.79,2,175.06,1.57,177.25.1,179.1Q.1,91.72,0,4.34C0,.73.75,0,4.35,0Q94.22.21,184.1.1Z"/><path class="cls-2" d="M220.1,400.1c8.85-1.89,17.73-3.68,26.56-5.68,29.91-6.78,56.55-20.25,80.22-39.66a197.79,197.79,0,0,0,64.71-96.24,181.61,181.61,0,0,0,7.52-39.15,15.84,15.84,0,0,1,1-3.26q0,89.88.1,179.75c0,3.6-.73,4.36-4.34,4.35Q308,400,220.1,400.1Z"/><path class="cls-2" d="M224.1.1V1.88a323.42,323.42,0,0,0-35.25-1c-.58,0-1.17-.49-1.75-.75Z"/><path class="cls-2" d="M398.34,172.1h1.76v3c-.07.11-.19.22-.18.32a4.24,4.24,0,0,0,.18.68v9C398.56,180.89,398.46,176.49,398.34,172.1Z"/><path class="cls-2" d="M400.1,176.1a4.24,4.24,0,0,1-.18-.68c0-.1.12-.21.18-.32Z"/></g></g></svg>