<svg viewBox="0 0 2000 1999" xmlns="http://www.w3.org/2000/svg">
  <g fill="#2D3F50" fill-rule="nonzero">
    <path d="M1000.45761 151.675c-468.234784 0-847.809784 379.575-847.809784 847.809783 0 468.229347 379.573913 847.810867 847.809784 847.810867 468.22935 0 847.80978-379.58261 847.80978-847.810867 0-468.234783-379.58152-847.809783-847.80978-847.809783zm.00109 1531.88043c-377.796743 0-684.067396-306.27282-684.067396-684.06956 0-377.795653 306.270653-684.068479 684.067396-684.068479 292.55543 0 542.18587 183.684783 639.93369 442.006522h-295.1663c-76.23805-108.365217-202.2087-179.183696-344.76957-179.183696-232.643477 0-421.235868 188.603261-421.235868 421.245653 0 232.64348 188.594565 421.23696 421.236958 421.23696 137.43696 0 259.51087-65.83587 336.40869-167.69131h299.1c-100.725 252.26522-347.29782 430.52391-635.5076 430.52391zm259.39347-684.06956c0 143.25326-116.1413 259.39565-259.39565 259.39565-143.263042 0-259.39565-116.14239-259.39565-259.39565 0-143.261957 116.132608-259.401087 259.39565-259.401087 143.25544-.001087 259.39457 116.13913 259.39565 259.401087z"/>
    <path d="M1000.45761.019565C448.467391.019565.991304 447.494565.991304 999.486957c0 551.992393 447.476087 999.467393 999.466306 999.467393 552 0 999.47717-447.47609 999.47717-999.467393 0-551.991305-447.47717-999.467392-999.47717-999.467392zm0 1928.833695c-513.278262 0-929.36848-416.09022-929.36848-929.368477 0-513.278261 416.090218-929.376087 929.36848-929.376087 513.27065 0 929.36848 416.1 929.37065 929.376087-.00109 513.278257-416.1 929.368477-929.37065 929.368477z"/>
  </g>
</svg>
