<svg viewBox="0 0 1970 1971" xmlns="http://www.w3.org/2000/svg">
  <path d="M1969.89574 1518.31493l-375.60339-213.47894-33.61123 58.61832 375.51562 213.47894 33.699-58.61832zM409.3865 618.438574L33.783118 404.959635.128 463.577959l375.5595 213.478935 33.699-58.61832zM1574.06418 1937.11076l-214.56783-373.53358-58.8855 33.52112 214.61171 373.48994 58.84162-33.47748zM669.412882 373.577229L454.845059 0l-58.8855 33.477478 214.611706 373.577228 58.841617-33.477477zM454.845059 1970.58824l214.567823-373.48994-58.841617-33.52112-214.611706 373.53358 58.8855 33.47748zM1359.49635 407.054706l214.56783-373.577228L1515.22256 0l-214.61171 373.577229 58.8855 33.477477zM33.783118 1576.93325L409.3865 1363.45431l-33.699-58.61832L.128 1518.31493l33.655118 58.61832zM1594.29235 677.056894l375.60339-213.478935-33.699-58.618324-375.51562 213.478939 33.61123 58.61832zm35.27862 302.606721H996.35456v877.441645l633.21641-877.441645zM996.35456 102.309268v877.354347H363.050382L996.35456 102.309268z" fill="#030404" fill-rule="nonzero"/>
</svg>
