<svg viewBox="0 0 1990 1990" xmlns="http://www.w3.org/2000/svg">
  <path d="M997.53679 108.009153c-359.134943 0-723.632813 220.33716-825.476705 474.562795C306.06875 362.250541 659.853977 170.147682 997.53679 170.147682c337.68295 0 675.37912 186.415879 787.94901 406.794517-85.76819-254.254251-418.10142-468.933046-787.94901-468.933046zM.523722 1096.6995c0-141.240299 10.712642-242.942433 21.425426-327.68407C70.176136 407.459646 391.796875.691578 997.51009.691578c589.63764 0 900.50553 412.425132 964.82159 762.695693 16.08906 90.397834 21.43877 186.416023 26.82841 333.312229-16.07571 508.44954-444.88978 892.62852-996.99958 892.62852-546.733663 0-975.560936-384.17898-991.636646-892.62852H.523722zm777.249716 677.96634c412.725002 33.90322 927.307242-344.61234 991.650002-836.151093 48.21363 519.753693-444.92983 960.414133-991.650002 836.151093zm219.763352 112.95947c487.79389 0 862.99105-344.61509 873.70384-802.24586 10.71264-401.120833-343.07259-802.240075-873.70384-802.240075-541.397159 0-900.532102 401.134851-889.806108 802.240075 10.725994 457.63077 391.299716 802.24586 889.806108 802.24586z" fill="#12202D" fill-rule="nonzero"/>
</svg>
