<svg viewBox="0 0 2000 2000" xmlns="http://www.w3.org/2000/svg">
  <g fill="none" fill-rule="evenodd">
    <circle fill="#4165A5" cx="1000" cy="1000" r="1000"/>
    <path d="M1584.47423 1001.56701c0 111.04523-22.31249 207.81918-66.93815 290.32474-44.62565 82.50557-110.26589 146.32967-196.92268 191.47423-86.65679 45.14455-190.69527 67.71649-312.11855 67.71649H659.793814V453.608247h348.701036c121.42328 0 225.46176 22.053044 312.11855 66.159794 86.65679 44.10675 152.29703 107.411959 196.92268 189.917526 44.62566 82.505567 66.93815 179.798409 66.93815 291.881443zm-586.876292 421.86598c143.217212 0 252.704092-36.84156 328.463922-110.52577 75.75982-73.68422 113.63917-177.46325 113.63917-311.34021 0-133.876958-37.6199-237.915436-112.86082-312.118556-75.24093-74.203121-184.98726-111.304124-329.242272-111.304124h-196.14433v845.28866h196.14433z" fill="#FFF"/>
    <path fill="#FFF" d="M505.154639 814.43299h577.319588v123.71134H505.154639z"/>
  </g>
</svg>
