<svg xmlns="http://www.w3.org/2000/svg" xmlns:xlink="http://www.w3.org/1999/xlink" viewBox="0 0 28.42 45"><defs><style>.cls-1{fill:url(#linear-gradient);}.cls-2{fill:#044d8c;}.cls-3{fill:url(#linear-gradient-2);}</style><linearGradient id="linear-gradient" x1="14.21" y1="1" x2="14.21" y2="29.41" gradientTransform="matrix(1, 0, 0, -1, 0, 46)" gradientUnits="userSpaceOnUse"><stop offset="0" stop-color="#0681ed"/><stop offset="1" stop-color="#2197ff"/></linearGradient><linearGradient id="linear-gradient-2" x1="14.21" y1="17.58" x2="14.21" y2="46" gradientTransform="matrix(1, 0, 0, -1, 0, 46)" gradientUnits="userSpaceOnUse"><stop offset="0" stop-color="#c41431"/><stop offset="1" stop-color="#f7193e"/></linearGradient></defs><title>dor</title><g id="Layer_2" data-name="Layer 2"><g id="Dorado"><path id="Blue-square" class="cls-1" d="M13.69,44.78.22,31.31a.74.74,0,0,1,0-1L13.69,16.8a.74.74,0,0,1,1,0L28.2,30.27a.74.74,0,0,1,0,1L14.73,44.78A.74.74,0,0,1,13.69,44.78Z"/><path id="Shadow" class="cls-2" d="M13.69,16.8,5.91,24.57l7.77,7.77a.74.74,0,0,0,1,0l7.77-7.77L14.73,16.8A.74.74,0,0,0,13.69,16.8Z"/><path id="Red-square" class="cls-3" d="M13.69,28.2.22,14.73a.74.74,0,0,1,0-1L13.69.22a.74.74,0,0,1,1,0L28.2,13.69a.74.74,0,0,1,0,1L14.73,28.2A.74.74,0,0,1,13.69,28.2Z"/></g></g></svg>