<svg viewBox="0 0 1548 1997" xmlns="http://www.w3.org/2000/svg">
  <defs>
    <linearGradient x1="102.133446%" y1="49.999983%" x2="-.489469%" y2="49.999902%" id="a">
      <stop stop-color="#5E2C75" offset="0%"/>
      <stop stop-color="#4B4188" offset="46.44%"/>
      <stop stop-color="#315DA2" offset="99.51%"/>
    </linearGradient>
    <linearGradient x1="50.000863%" y1="-191.760517%" x2="50.000863%" y2="99.061566%" id="b">
      <stop stop-color="#2CA4DD" offset="0%"/>
      <stop stop-color="#398FCE" offset="37.28%"/>
      <stop stop-color="#5465AF" offset="99.51%"/>
    </linearGradient>
    <linearGradient x1="49.99924%" y1="-92.189436%" x2="49.99924%" y2="198.984915%" id="c">
      <stop stop-color="#2CA4DD" offset="0%"/>
      <stop stop-color="#398FCE" offset="37.28%"/>
      <stop stop-color="#5465AF" offset="99.51%"/>
    </linearGradient>
    <linearGradient x1="49.999254%" y1="-22.773243%" x2="49.999254%" y2="373.012303%" id="d">
      <stop stop-color="#2CA4DD" offset="0%"/>
      <stop stop-color="#398FCE" offset="37.28%"/>
      <stop stop-color="#5465AF" offset="99.51%"/>
    </linearGradient>
    <linearGradient x1="50.001828%" y1="-173.63099%" x2="50.001828%" y2="358.947343%" id="e">
      <stop stop-color="#2CA4DD" offset="0%"/>
      <stop stop-color="#398FCE" offset="37.28%"/>
      <stop stop-color="#5465AF" offset="99.51%"/>
    </linearGradient>
    <linearGradient x1="46.981348%" y1="-13.604956%" x2="51.238908%" y2="81.480542%" id="f">
      <stop stop-color="#4F8ABF" offset="0%"/>
      <stop stop-color="#5175AF" offset="20.44%"/>
      <stop stop-color="#584186" offset="62.26%"/>
      <stop stop-color="#5E0C5D" offset="100%"/>
    </linearGradient>
    <linearGradient x1="50.000252%" y1="-.000158%" x2="50.000252%" y2="106.058709%" id="g">
      <stop stop-color="#5B6AB0" offset="0%"/>
      <stop stop-color="#706FB1" offset="28.26%"/>
      <stop stop-color="#A47BB5" offset="86.14%"/>
      <stop stop-color="#B27EB6" offset="100%"/>
    </linearGradient>
    <linearGradient x1="50.002378%" y1="-530.92314%" x2="50.002378%" y2="840.169283%" id="h">
      <stop stop-color="#3598D3" offset="0%"/>
      <stop stop-color="#4583C5" offset="29.61%"/>
      <stop stop-color="#6E51A1" offset="87.76%"/>
    </linearGradient>
    <linearGradient x1="49.999624%" y1="-51.735068%" x2="49.999624%" y2="127.115175%" id="i">
      <stop stop-color="#3598E0" offset="16.75%"/>
      <stop stop-color="#5D66B3" offset="63.72%"/>
      <stop stop-color="#6E51A1" offset="87.76%"/>
    </linearGradient>
  </defs>
  <g fill="none" fill-rule="evenodd">
    <path d="M457.060904 1555.51277c254.91945 135.64244 497.041257 116.44401 729.481336-60.71513 11.17878 45.39882 20.67976 90.70727 16.96267 137.92535-5.95285 75.62279-29.74067 145.11984-78.05894 203.84283-143.689585 174.61689-343.410607 172.38113-475.178779 101.71316-152.719057-81.91749-218.102162-249.62672-193.206287-382.76621z" fill="url(#a)" transform="translate(-2)"/>
    <path d="M1230.08644 604.70334c-11.1945-.880157-15.9332-10.612967-22.80157-17.111984-29.24951-27.693517-58.71513-55.021611-95.08055-73.477407-2.31827-5.257367-7.43811-7.009823-11.89391-9.693517-70.66012-42.463654-146.263259-71.147348-227.972493-83.905697-44.726915-6.982318-89.693516-7.493124-134.479371-5.422397-60.090373 2.781925-118.278978 17.237721-175.170923 36.640471-1.540275-57.559921-1.508841-29.94499-1.508841-61.980353C635.08055 285.088409 737.096267 126.530452 808.903733 20.392927c3.948919-5.83497 8.172888-11.485265 13.925344-19.540275 12.730844 18.282908 24.388998 34.522594 35.532416 51.108055C934.133595 164.746562 1009.57564 277.756385 1085.5835 390.38507c43.87033 65.001964 143.0334 206.21611 144.50294 214.318271z" fill="#5FB1E2"/>
    <path d="M288.48723 416.982318c-53.005894-.286837-106.011788-.310412-159.021611.051081-26.605108.180746-39.206287 13.182711-39.375246 40.420432-.32613 52.349705-.385069 104.70334-.078585 157.056975.153242 26.412573 12.302554 38.451866 38.4833 38.801571 26.168959.345776 52.349706.074656 78.526523.082515 28.133595.011788 56.282908.400786 84.408644-.10609 23.779961-.428291 36.086444-12.91945 36.21611-36.848723.294696-53.654224.247545-107.320236-.070726-160.978389-.141454-25.540275-13.127702-38.337918-39.088409-38.479372z" fill="url(#b)" transform="translate(-2 428.290766)"/>
    <path d="M574.196464 223.909627c1.316306-27.846759-10.267191-42.589391-35.666012-42.825148-54.899804-.510805-109.807466-.424361-164.70334-.007858-21.465619.1611-35.08055 12.373281-36.003929 33.379175-.946955 21.442043-2.212181 43.053045 1.064833 64.495088-3.324165 35.265226-1.996071 70.620825-.91945 105.874263.620825 20.534381 14.019646 31.94892 34.821218 32.094303 55.662082.396856 111.328094.420432 166.990177.027505 21.359528-.153242 34.974459-12.833006 35.13556-33.976425.396856-53.013752-.400786-106.039292-.719057-159.060903z" fill="url(#c)" transform="translate(-2 428.290766)"/>
    <path d="M338.035363 32.007858c-.534381-20.565815-10.781925-29.111984-31.29273-29.493123-18.318272-.337918-36.644401-.070727-54.962672-.05501-19.630649.015717-39.269155-.373281-58.884087.121807-19.34774.49116-29.277013 10.027505-29.485265 28.884087-.420432 37.94499-.408644 75.901768-.015717 113.850687.208251 20.129666 10.298625 30.475443 30.098232 30.699411 37.941061.420432 75.897839.38114 113.850687.007859 19.324165-.192535 30.231828-9.449902 30.683694-28.21611.923379-38.581533 1.001965-77.218075.007858-115.799608z" fill="url(#d)" transform="translate(-2 428.290766)"/>
    <path d="M131.815324 291.442043c-.031434-26.789784.090373-53.587426-.031434-80.37721-.078585-16.047151-8.349705-23.941061-24.444008-23.799607-13.068762.117878-26.137524.023576-39.210216.019646-13.068762-.007858-26.141454.212181-39.210216-.062868-17.89391-.373281-26.620825 8.05108-26.502947 26.023576.168959 25.485265.251473 50.974459.019646 76.455795-.15717 16.943026 8.310413 25.996071 24.70727 26.365423 26.777995.601178 53.587426.585461 80.365422-.019647 15.245579-.341846 24.32613-8.333988 24.306483-24.605108z" fill="url(#e)" transform="translate(-2 428.290766)"/>
    <path d="M417.445972 1685.30452c-9.151277-58.22004-8.153241-114.3222 4.027505-168.04715-71.850687-52.77014-131.768172-120.81336-174.962671-199.37132-28.302555-.88016-56.675835-.6444-84.986248-.09823-38.428291.7387-60.990177 27.40275-56.133595 64.20432 12.110019 91.76817 39.724951 178.52259 85.068762 259.30845 19.736739 35.17485 39.968566 70.1886 68.640471 99.27701.459725 1.21022.644401 2.64047 1.418468 3.59529 100.436149 123.76424 227.819253 205.93713 381.72888 247.04126 4.899804 1.30844 10.923379 4.19646 16.133595-2.95875-129.776031-62.35363-211.210216-162.23182-240.935167-302.95088z" fill="url(#f)" fill-rule="nonzero" transform="translate(-2)"/>
    <path d="M1230.08644 604.70334c-.23968-.019646-.43615-.094303-.6719-.121808.85265.907662 1.70137 1.815325 2.54224 2.730845-.62476-.86444-1.23772-1.744597-1.87034-2.609037z" fill="#3C92CF" fill-rule="nonzero"/>
    <path d="M1463.16306 947.387033c-19.49705-36.220039-43.52455-69.390962-66.91159-103.088408-21.37131-30.797643-42.25147-61.937132-63.12377-93.076621 40.62476 81.925344 63.49705 174.208251 63.49705 271.850686 0 172.0943-70.97446 327.58743-185.20628 438.89588 63.32023 163.90569 15.7996 356.66404-126.44794 469.7721-15.92534 12.66405-32.21611 24.72298-50.07073 34.46365-17.62672 9.61886-35.555989 18.68762-56.939093 29.87034 8.428291-1.5835 12.927309-2.22397 17.324165-3.29666 113.996068-27.73281 215.387038-79.84676 304.216108-156.59725 259.88998-224.55796 322.35364-593.96071 163.66208-888.793717z" fill="url(#g)" fill-rule="nonzero" transform="translate(-2)"/>
    <path d="M1233.96071 607.312377c34.27505 47.131631 66.72298 95.5167 99.16306 143.909627" fill="url(#h)" fill-rule="nonzero" transform="translate(-2)"/>
    <path d="M1394.62083 1023.06876c0-97.642434-22.8723-189.925342-63.49706-271.850685-32.44008-48.388998-64.89194-96.774067-99.16306-143.909627-.8448-.911591-1.69352-1.823183-2.54224-2.730845-10.68763-1.225933-15.40668-10.632613-22.12967-16.990177-29.24951-27.693516-58.71513-55.021611-95.08055-73.481336-2.31827-5.253438-7.43811-7.009823-11.89391-9.689587-70.66012-42.463654-146.263259-71.147348-227.972493-83.905697-44.726916-6.982319-89.693517-7.493124-134.479372-5.422397-60.090373 2.781925-118.278978 17.237721-175.170923 36.640471-.231827 34.628684-1.092338 69.265226-.502947 103.882122.546169 32.05501 22.766208 53.163065 55.308448 53.469548 39.214145.373281 78.440079.286837 117.658153-.003929 11.933203-.086444 23.442044 1.18664 34.59725 5.40275 22.616896 13.658154 29.921414 33.850688 28.950884 59.756385-1.418468 37.901769-.302554 75.901769-.451867 113.862476-.145383 36.813359-19.937131 56.738703-57.111984 57.037328-39.265226.310412-78.534381-.153242-117.799607.165029-40.990177.330059-61.308448 20.844794-61.477407 61.552063-.165029 38.612967-.015717 77.225933-.255402 115.838898-.239686 38.26719-19.874264 58.21611-57.791749 58.47937-38.609037.26326-77.225933-.17681-115.83497.11395-42.569745.3222-62.554028 20.49509-62.616896 62.69155-.066798 39.92142-.506876 79.85462.200393 119.76425.569744 31.88212-30.954814 56.58939-58.106091 55.08055-7.638507-.42436-15.288801-.70334-22.939096-.9391 43.194499 78.55796 103.111984 146.60511 174.962672 199.37132 10.958743-48.33399 30.97446-94.74263 60.848723-139.04126 44.286837-65.65029 89.24558-130.84872 133.528487-196.49902 46.424362-68.82514 92.192535-138.0943 138.675835-206.876225 22.526523-33.335953 46.035364-66.011788 70.436149-100.899803 22.640472 33.225933 44.239686 64.797642 65.713164 96.459725 92.495088 136.349703 184.770136 272.852653 277.473476 409.064833 17.85462 26.23576 32.2279 53.9332 43.26523 82.49509 114.22789-111.30059 185.19843-266.79372 185.19843-438.88802z" fill="#3C92CF" fill-rule="nonzero"/>
    <path d="M1396.62083 1023.06876c0-97.642434-22.8723-189.925342-63.49706-271.850685-32.44008-48.388998-64.89194-96.774067-99.16306-143.909627-.8448-.911591-1.69352-1.823183-2.54224-2.730845-10.68763-1.225933-15.40668-10.632613-22.12967-16.990177-29.24951-27.693516-58.71513-55.021611-95.08055-73.481336-2.31827-5.253438-7.43811-7.009823-11.89391-9.689587-70.66012-42.463654-146.263259-71.147348-227.972493-83.905697-44.726916-6.982319-89.693517-7.493124-134.479372-5.422397-60.090373 2.781925-118.278978 17.237721-175.170923 36.640471-.231827 34.628684-1.092338 69.265226-.502947 103.882122.546169 32.05501 22.766208 53.163065 55.308448 53.469548 39.214145.373281 78.440079.286837 117.658153-.003929 11.933203-.086444 23.442044 1.18664 34.59725 5.40275 22.616896 13.658154 29.921414 33.850688 28.950884 59.756385-1.418468 37.901769-.302554 75.901769-.451867 113.862476-.145383 36.813359-19.937131 56.738703-57.111984 57.037328-39.265226.310412-78.534381-.153242-117.799607.165029-40.990177.330059-61.308448 20.844794-61.477407 61.552063-.165029 38.612967-.015717 77.225933-.255402 115.838898-.239686 38.26719-19.874264 58.21611-57.791749 58.47937-38.609037.26326-77.225933-.17681-115.83497.11395-42.569745.3222-62.554028 20.49509-62.616896 62.69155-.066798 39.92142-.506876 79.85462.200393 119.76425.569744 31.88212-30.954814 56.58939-58.106091 55.08055-7.638507-.42436-15.288801-.70334-22.939096-.9391 43.194499 78.55796 103.111984 146.60511 174.962672 199.37132 10.958743-48.33399 30.97446-94.74263 60.848723-139.04126 44.286837-65.65029 89.24558-130.84872 133.528487-196.49902 46.424362-68.82514 92.192535-138.0943 138.675835-206.876225 22.526523-33.335953 46.035364-66.011788 70.436149-100.899803 22.640472 33.225933 44.239686 64.797642 65.713164 96.459725 92.495088 136.349703 184.770136 272.852653 277.473476 409.064833 17.85462 26.23576 32.2279 53.9332 43.26523 82.49509 114.22789-111.30059 185.19843-266.79372 185.19843-438.88802z" fill="url(#i)" fill-rule="nonzero" transform="translate(-2)"/>
  </g>
</svg>
