<?xml version="1.0" encoding="UTF-8"?> <svg xmlns="http://www.w3.org/2000/svg" xmlns:xlink="http://www.w3.org/1999/xlink" width="296.25pt" height="296.25pt" viewBox="0 0 296.25 296.25"> <defs> <filter id="alpha" filterUnits="objectBoundingBox" x="0%" y="0%" width="100%" height="100%"> <feColorMatrix type="matrix" in="SourceGraphic" values="0 0 0 0 1 0 0 0 0 1 0 0 0 0 1 0 0 0 1 0"></feColorMatrix> </filter> <mask id="mask0"> <g filter="url(#alpha)"> <rect x="0" y="0" width="285" height="285" style="fill:rgb(0%,0%,0%);fill-opacity:0.501961;stroke:none;"></rect> </g> </mask> <clipPath id="clip1"> <rect x="0" y="0" width="285" height="285"></rect> </clipPath> <g id="surface5" clip-path="url(#clip1)"> <path style=" stroke:none;fill-rule:nonzero;fill:rgb(100%,100%,100%);fill-opacity:1;" d="M 222.261719 154.960938 C 222.261719 165.164063 214.0625 173.4375 203.953125 173.4375 C 193.84375 173.4375 185.644531 165.164063 185.644531 154.960938 L 185.644531 108.351563 C 185.644531 98.144531 193.84375 89.871094 203.953125 89.871094 C 214.0625 89.871094 222.261719 98.144531 222.261719 108.351563 Z M 222.261719 154.960938 "></path> </g> </defs> <g id="surface1" transform="translate(5.625,5.625)" style="filter:url(#filter2258)"><filter style="color-interpolation-filters:sRGB" label="Drop Shadow" id="filter2258"><feFlood flood-opacity="0.498039" flood-color="rgb(0,0,0)" result="flood" id="feFlood2248"></feFlood><feComposite in="flood" in2="SourceGraphic" operator="in" result="composite1" id="feComposite2250"></feComposite><feGaussianBlur in="composite1" stdDeviation="1" result="blur" id="feGaussianBlur2252"></feGaussianBlur><feOffset dx="2" dy="2" result="offset" id="feOffset2254"></feOffset><feComposite in="SourceGraphic" in2="offset" operator="over" result="fbSourceGraphic" id="feComposite2256"></feComposite><feColorMatrix result="fbSourceGraphicAlpha" in="fbSourceGraphic" values="0 0 0 -1 0 0 0 0 -1 0 0 0 0 -1 0 0 0 0 1 0" id="feColorMatrix2260"></feColorMatrix><feFlood id="feFlood2262" flood-opacity="0.498039" flood-color="rgb(0,0,0)" result="flood" in="fbSourceGraphic"></feFlood><feComposite in2="fbSourceGraphic" id="feComposite2264" in="flood" operator="in" result="composite1"></feComposite><feGaussianBlur id="feGaussianBlur2266" in="composite1" stdDeviation="1" result="blur"></feGaussianBlur><feOffset id="feOffset2268" dx="2" dy="2" result="offset"></feOffset><feComposite in2="offset" id="feComposite2270" in="fbSourceGraphic" operator="over" result="composite2"></feComposite></filter>&gt; <path style=" stroke:none;fill-rule:evenodd;fill:rgb(7.058824%,9.019608%,27.843137%);fill-opacity:1;" d="M 285 142.5 C 285 221.199219 221.199219 285 142.5 285 C 63.800781 285 0 221.199219 0 142.5 C 0 63.800781 63.800781 0 142.5 0 C 221.199219 0 285 63.800781 285 142.5 Z M 285 142.5 "></path> <path style=" stroke:none;fill-rule:nonzero;fill:rgb(100%,100%,100%);fill-opacity:1;" d="M 160.59375 203.679688 C 160.59375 213.882813 152.398438 222.15625 142.289063 222.15625 C 132.175781 222.15625 123.980469 213.882813 123.980469 203.679688 L 123.980469 80.867188 C 123.980469 70.660156 132.175781 62.390625 142.289063 62.390625 C 152.398438 62.390625 160.59375 70.660156 160.59375 80.867188 Z M 98.957031 203.734375 C 99.066406 210.382813 95.613281 216.574219 89.925781 219.933594 C 84.238281 223.289063 77.199219 223.289063 71.507813 219.933594 C 65.820313 216.574219 62.367188 210.382813 62.476563 203.734375 L 62.476563 176.117188 C 62.367188 169.464844 65.820313 163.273438 71.507813 159.917969 C 77.199219 156.558594 84.238281 156.558594 89.925781 159.917969 C 95.613281 163.273438 99.066406 169.464844 98.957031 176.117188 Z M 98.957031 203.734375 "></path> <use xlink:href="#surface5" mask="url(#mask0)"></use> </g> </svg> 