<svg viewBox="0 0 1997 1996" xmlns="http://www.w3.org/2000/svg">
  <defs>
    <linearGradient x1="37.14%" y1="93.4425%" x2="65.53%" y2="-2.47%" id="a">
      <stop stop-color="#F75814" offset="0%"/>
      <stop stop-color="#F96B17" offset="25%"/>
      <stop stop-color="#FC8B21" offset="42%"/>
      <stop stop-color="#FDA430" offset="58%"/>
      <stop stop-color="#FEB83E" offset="79%"/>
      <stop stop-color="#FAD35E" offset="100%"/>
    </linearGradient>
    <linearGradient x1="106.334796%" y1="72.318803%" x2="18.931138%" y2="62.032978%" id="b">
      <stop stop-opacity="0" offset="0%"/>
      <stop offset="100%"/>
    </linearGradient>
    <linearGradient x1="24458%" y1="3833.29013%" x2="20913%" y2="3603.14744%" id="c">
      <stop stop-color="#FFF" offset="0%"/>
      <stop stop-color="#FAFAFA" offset="10%"/>
      <stop stop-color="#EBEBEB" offset="23%"/>
      <stop stop-color="#D3D3D3" offset="36%"/>
      <stop stop-color="#B1B1B1" offset="50%"/>
      <stop stop-color="#868686" offset="65%"/>
      <stop stop-color="#505050" offset="80%"/>
      <stop stop-color="#121212" offset="96%"/>
      <stop stop-color="#FFF" offset="100%"/>
    </linearGradient>
  </defs>
  <g transform="translate(1)" fill="none" fill-rule="evenodd">
    <circle fill="url(#a)" fill-rule="nonzero" cx="997.65586" cy="997.955112" r="997.506234"/>
    <g stroke="#FAD35E" stroke-width="2">
      <path d="M18.952618 1191.67082s452.66833 532.21945 1286.783042 755.31172M18.952618 804.189526S523.690773 1557.05736 1635.91022 1764.53865M123.640898 516.857855S650.024938 1406.93267 1847.53117 1520.399M312.518703 272.967581S597.157107 1147.13217 1959.75062 1262.14464M514.314214 125.236908S780.249377 927.032419 1995.01247 1018.60349M750.573566 31.321696S869.476309 686.234414 1959.75062 753.566085M1022.44389.74813s139.65087 394.962593 834.61347 490.573566M689.526185 1946.98254s587.182045-75.26184 1286.783045-755.31172M334.663342 1743.19202S1449.92519 1623.74065 1976.30923 804.239401M147.780549 1520.399s1014.663341-34.46384 1730.274311-991.720696M38.753117 1273.71571s1033.566083-9.62593 1675.710723-969.476309M0 1018.60349s870.473815 94.76309 1541.14713-857.00748M30.32419 753.566085s750.374064 72.319202 1244.13965-715.710723M138.304239 491.321696S616.359102 467.381546 972.817955.74813"/>
    </g>
    <path fill="#FFF" fill-rule="nonzero" d="M573.715711 883.241895l354.114713 344.139655 473.815466-119.70075-598.503745 588.52868-229.426434-812.967585"/>
    <path fill-opacity=".3" fill="url(#b)" fill-rule="nonzero" d="M1401.64589 1107.6808l-596.556563 587.02287 123.251442-467.73812z"/>
    <path fill="#FFF" fill-rule="nonzero" d="M583.690773 818.40399l359.102244 339.15212 483.790523-119.70075-229.42643-802.992517L583.690773 818.40399"/>
    <path fill="url(#c)" fill-rule="nonzero" d="M1426.58354 1037.85536l-219.45137-768.079799-224.438903 877.805489z"/>
    <path fill-opacity=".3" fill="url(#b)" fill-rule="nonzero" d="M1426.58354 1037.85536l-229.28139-801.968028-254.13273 920.920358z"/>
  </g>
</svg>
