<svg viewBox="0 0 1999 2000" xmlns="http://www.w3.org/2000/svg">
  <path d="M1000 1834.36123c-343.612335 0-637.885463-207.04845-765.638767-503.0837l107.488987-37.0044C454.625551 1546.25551 706.60793 1721.5859 1000 1721.5859c333.03965 0 612.3348-225.55066 696.03524-531.27753l-209.69163 67.84141C1393.8326 1431.71806 1210.57269 1550.66079 1000 1550.66079c-218.502203 0-407.929515-127.7533-496.035242-312.77533l208.810572-73.12775-41.409691 216.74009L1998.23789 948.898678C1971.80617 420.264317 1534.80176 0 1000 0 447.577093 0 0 447.577093 0 1000c0 51.98238 4.405286 103.96476 11.453745 154.18502L1056.38767 819.38326l-57.268727 193.8326 689.867837-226.431719C1597.35683 493.39207 1323.34802 279.295154 1000 279.295154c-368.281938 0-672.246696 276.651983-715.418502 633.480176l-117.180617 37.004406c26.431718-437.004406 389.427313-784.140969 833.480179-784.140969 410.57268 0 752.4229 296.916299 822.02643 688.105726L868.722467 1166.51982l44.933921-207.929512L30.837004 1244.93392C140.088106 1678.4141 533.039648 1999.11894 1000 1999.11894c520.70485 0 948.01762-398.23788 995.59471-906.60793l-174.44934 56.38767c-70.48458 389.42731-411.45374 685.46255-821.14537 685.46255zm0-1385.022023c195.59471 0 367.40088 102.202643 465.19824 255.506608l-251.10132 84.581498L1263.43612 600 470.484581 852.863436C533.920705 620.264317 747.136564 449.339207 1000 449.339207z" fill="#2727A4" fill-rule="nonzero"/>
</svg>
