<svg viewBox="0 0 1996 1996" xmlns="http://www.w3.org/2000/svg">
  <path d="M998 1995.25275C447.232516 1995.25275.747253 1548.76748.747253 998 .747253 447.232516 447.232516.747253 998 .747253c550.76748 0 997.25275 446.485263 997.25275 997.252747 0 550.76748-446.48527 997.25275-997.25275 997.25275zm438.63569-1624.021898c-.70127 7.175053-1.07259 13.051854-1.87834 18.862087-3.61646 26.124224-8.53103 51.880237-18.65446 76.283102-10.97594 26.466048-26.26415 49.541655-46.81887 68.728377-24.27306 22.661202-52.38534 37.822788-83.28074 47.576874-34.02792 10.745249-69.05683 15.616526-104.22327 19.592425-43.164 4.879979-86.38021 9.264411-129.50566 14.492157-38.30709 4.645257-76.259474 11.779776-113.782883 21.197767-46.571422 11.689935-91.844732 27.268826-134.345885 50.932652-42.06114 23.417573-78.767694 53.601596-107.248467 94.165769-21.462342 30.569424-35.438721 64.76981-45.713324 101.10313-18.214447 64.427915-17.77988 128.386388 1.77109 192.272488 12.491297 40.8279 31.406936 78.26515 54.263598 113.60738 21.297372 32.9254 45.460351 63.36445 71.622776 92.10534 43.298696 47.57115 90.711661 90.24201 139.739025 131.0206 29.366318 24.4202 58.644634 48.92733 85.21955 76.81338 19.1522 20.0966 36.3133 41.74068 49.09882 66.94038 18.79191 37.04612 25.90938 76.45111 21.45413 118.27293-2.49442 23.37987-8.31102 45.82376-16.01699 67.77499-3.58074 10.2149-7.81053 20.17775-11.68279 30.2796-.32449.84041-.19249 1.87784-.26953 2.82542.88286.02321 1.77116.12465 2.64843.06084 4.42228-.32739 8.8556-.57088 13.26132-1.07796 12.59578-1.44313 25.23005-2.62254 37.74887-4.59595 17.11158-2.70375 34.13792-5.99565 51.1835-9.13404 12.10901-2.23133 12.21073-2.42552 15.24966-14.64573 7.46127-30.01891 10.46716-60.43469 8.12681-91.45622-1.5566-20.61535-5.02733-40.8105-10.624-60.58253-10.27736-36.33035-25.90931-70.17724-45.56208-101.72623-11.52312-18.50279-24.82851-35.88411-38.34557-52.87416-25.59592-32.17491-55.63054-59.68418-85.546872-87.21086-23.390267-21.5224-47.377241-42.32317-70.874753-63.71512-33.923361-30.88529-66.180117-63.51804-94.487644-100.32363-46.279895-60.17683-73.116064-127.88801-73.754084-206.214064-.335528-40.92057 7.722453-79.456223 27.630953-114.807082 29.853092-53.013308 73.792638-88.848182 126.565706-113.398756 47.902499-22.284503 98.568874-34.043976 150.173154-41.532062 35.00691-5.079965 70.1679-8.968852 105.21605-13.790893 26.72341-3.677369 53.49634-7.259095 80.03277-12.176779 38.91766-7.209859 77.12309-17.416055 112.98258-35.58558 11.2345-5.691387 22.50466-11.359571 33.43383-17.659549 25.18612-14.515289 48.21879-32.261778 68.72958-53.442144 15.12042-15.613625 28.19477-33.026851 39.45947-51.972979 12.88731-21.673082 22.43313-44.841432 28.8603-69.455744.3025-1.156274-.39601-3.115184-1.26783-4.019334-10.4204-10.811888-20.673-21.832393-31.54446-32.125601-13.59409-12.866511-27.64474-25.202601-41.65685-37.570665-5.30237-4.679992-11.04745-8.806571-17.38662-13.814026zM937.212385 1278.58954c.968101 1.1156 1.386114 1.71549 1.911443 2.185 30.081305 27.02831 60.154472 54.06517 90.334822 80.97463 1.1661 1.04323 3.52294 1.51847 5.03009 1.09253 18.75895-5.27698 37.59486-10.32504 56.16125-16.30045 43.24097-13.91257 84.49084-32.64138 122.75124-58.27579 32.61973-21.8556 61.52679-48.13333 85.05182-80.58052 37.82583-52.17877 56.97258-112.00203 63.76549-176.6068 2.42008-23.0321.84706-46.107711-2.60167-68.960128-4.92009-32.635649-15.03517-63.532537-28.8741-93.145673-15.52746-33.223867-34.60262-64.071518-57.26955-92.279228-17.41959-21.675983-35.96674-42.3492-54.08215-63.404989-.95982-1.115669-2.64567-2.457428-3.83102-2.303847-10.21412 1.356261-20.39251 3.045645-30.58463 4.601822-19.39145 2.964504-38.78841 5.905805-58.18538 8.858707-8.75656 1.335958-17.51587 2.674746-26.89948 4.106276 1.06707 1.341689 1.60336 2.1792 2.28814 2.848629 5.07409 4.975551 10.23067 9.85843 15.26345 14.880459 28.03532 27.981619 54.20043 57.710702 76.38879 91.134484 29.22611 44.024224 47.53401 92.51685 51.84904 146.187985 2.0709 25.750353-.10448 51.416593-7.02395 76.512023-10.85221 39.35859-31.69846 72.51879-57.25031 102.60427-25.36764 29.86816-55.55902 53.25963-89.78487 70.79163-34.82546 17.83916-72.00231 27.83384-109.64117 36.17677-14.606122 3.23693-29.341559 5.85367-44.767295 8.90214v.00007zm149.617055-686.079317c-1.63357-1.611144-2.48615-2.581933-3.4597-3.393341-27.37522-22.832186-54.68713-45.722309-79.87876-71.301679-24.151948-24.530271-45.496152-51.228211-61.133617-82.724988-19.066885-38.411006-25.381294-79.076552-19.231855-121.776419 4.441451-30.84185 14.600604-59.829135 27.696955-87.712211.739746-1.57931 1.424597-3.184794 2.571392-5.760926-4.900777.492646-8.855524.843242-12.802065 1.298253-15.725469 1.8025-31.525216 3.08908-47.146199 5.598644-18.923915 3.042745-37.669066 7.319933-56.565534 10.582967-3.360729.579517-4.171995 2.077686-5.002574 4.850975-12.975312 43.25335-14.839923 87.152926-6.933188 131.611787 9.12505 51.309351 30.658912 96.941817 58.317384 139.603979 8.113018 12.515844 17.414144 24.22318 26.649198 35.878309 16.875093 21.290582 35.562519 40.767061 55.286736 59.1162 1.485081 1.382294 4.171995 2.118362 6.196129 1.927076 6.132886-.579587 12.219011-1.750293 18.318861-2.70658 17.202347-2.689177 34.404687-5.401628 51.609787-8.076303 14.79593-2.300876 29.59729-4.564117 45.50705-7.015743zM862.334569 1391.02855c-1.817851-1.7996-2.818918-2.86023-3.888746-3.83965a63334.061925 63334.061925 0 0 0-45.397108-41.64504c-13.610573-12.47531-27.2597-24.90704-40.823583-37.44029-2.230346-2.06325-4.270963-2.90076-7.356648-2.05745-5.005333 1.36489-10.203154 1.92997-15.282766 3.02534-43.862508 9.4586-86.699189 22.11352-126.736195 43.95468-28.20297 15.38464-54.940171 32.98618-78.522927 55.52281-36.442475 34.82637-62.329856 76.76407-76.303475 126.6767-1.25411 4.47137-.566571 7.6735 2.744639 10.86112 9.864938 9.4934 19.297998 19.49968 29.300316 28.82783 13.794926 12.86651 27.917033 25.34465 41.992379 37.8721 3.385488 3.01374 7.142229 5.56384 11.184979 8.68192.580295-2.26034.987343-3.53829 1.232109-4.85097 5.261065-28.29458 13.616091-55.53738 24.583752-81.95419 30.051099-72.37384 85.335075-110.01121 156.273071-125.73782 19.399725-4.30329 39.082699-7.27932 58.707878-10.33374 12.650819-1.96761 25.433643-2.99634 38.161429-4.39023 9.680585-1.06353 19.366688-2.04302 30.130896-3.17312zm306.070791-309.68797c12.48027-.46661 21.89408-10.70464 23.95401-26.40818 1.53736-11.70726-5.69287-22.58289-17.50214-26.25453-24.82576-7.7141-49.66532-15.3818-74.48839-23.11324-62.27213-19.404041-124.54433-38.808081-186.802666-58.255557-26.429191-8.258888-52.803346-16.723493-79.268262-24.851933-3.627496-1.112768-7.80225-1.72426-11.448988-1.008494-13.940583 2.732683-18.912879 13.16207-20.18899 27.932383-.866304 10.052687 5.274859 19.899586 17.273864 23.663825 31.274931 9.803535 62.571863 19.517086 93.852383 29.294446 81.391294 25.44022 162.777139 50.90365 244.174019 76.31784 3.43218 1.07223 6.96071 1.79669 10.44516 2.68344zm-515.637237 459.55558c-2.244141.3332-3.985025.43471-5.651559.86355-12.540816 3.21663-17.711119 13.88073-18.802947 27.95268-.822302 10.62931 6.42986 19.84738 17.290276 23.264 19.490486 6.12602 39.016697 12.13617 58.518219 18.22746 93.690102 29.25667 187.374685 58.54531 281.089547 87.71801 3.534046 1.09827 7.414443 1.86617 11.039251 1.55321 12.1117-1.04323 20.1423-11.33057 21.50634-26.77901 1.00928-11.40308-5.87156-21.19204-17.55159-24.8404-113.298871-35.39147-226.603186-70.77133-339.915778-106.12806-2.604429-.81141-5.299619-1.29826-7.521759-1.83144zM1369.24298 425.72818c.00828-14.387813-6.33916-22.739443-17.64228-26.269032-113.57391-35.481237-227.15051-70.945212-340.74912-106.333776-2.97844-.927283-6.28144-1.640148-9.31209-1.295282-16.693566 1.900973-22.545961 18.975062-21.264333 31.740129 1.13583 11.292931 8.495237 17.155301 18.522383 20.261784 58.69416 18.189828 117.33886 36.544838 175.99453 54.859243 54.63492 17.056757 109.25888 34.154121 163.90752 51.178974 9.99688 3.112283 20.14499-.173883 25.05681-9.081827 3.02244-5.48567 4.40303-11.976863 5.48658-15.060213zM880.070942 882.904079c-.035724 11.336367 6.097162 19.754636 17.163861 23.255292 16.930059 5.355222 33.895913 10.588768 50.845143 15.880251 56.164004 17.543603 112.322564 35.110337 168.497604 52.619135 6.60042 2.057524 13.18428 4.767004 19.94698 5.532005 13.1458 1.480838 22.83473-8.4298 25.45006-24.712855 1.97192-12.26372-5.02175-23.432005-17.24628-27.248522-43.19421-13.495264-86.41042-26.918088-129.61015-40.390219-34.32489-10.704643-68.608539-21.545535-102.993915-32.027058-4.268275-1.301153-9.224088-1.750293-13.5474-.878047-11.440711 2.303776-17.738567 13.353214-18.505903 27.970018zm-23.479897 133.764031c-3.525698 1.53878-8.275229 2.5646-11.770721 5.33782-9.119532 7.24177-12.070454 17.80443-10.332329 29.19583 1.567567 10.28741 8.671242 15.82522 17.986092 18.71438 50.396924 15.62523 100.758052 31.37503 151.130213 47.0901 27.1277 8.46461 54.23347 17.02196 81.41337 25.30985 3.4817 1.06353 7.4612 1.53877 11.00614.93308 11.31974-1.93578 16.56701-10.35115 19.21276-21.31661 3.34962-13.89227-3.01148-26.08065-16.03355-30.23616-5.91012-1.88647-11.84769-3.65127-17.76609-5.50017-71.21021-22.2439-142.4149-44.4965-213.633387-66.70849-3.294726-1.0288-6.688421-1.69236-11.212427-2.81963h-.000071zm-196.891079 649.8263c.035725 10.43801 6.209853 19.25329 15.953682 22.49305 6.451931 2.14736 12.975382 4.05994 19.460279 6.08846 73.259033 22.89592 146.51269 45.80635 219.796482 68.60663 1.933373.59989 4.279311.34486 6.308892-.11015 11.198703-2.51819 16.910817-10.48442 19.603248-21.74835 3.19293-13.36199-2.956439-25.82569-15.530221-29.76092a124501.042002 124501.042002 0 0 0-235.175457-73.3389c-2.835471-.88094-6.022953-1.23444-8.957322-.91568-13.792166 1.48077-20.447551 13.39679-21.459583 28.68579v.00007zm70.509443-192.37889c-2.329385.29556-3.943783.31876-5.467348.72157-12.166733 3.19632-17.812845 12.71866-19.000953 27.27745-.910305 11.14515 5.657147 20.17484 16.564324 23.6813 14.900407 4.79014 29.869576 9.34265 44.805778 14.01111 62.574622 19.56335 125.13835 39.17028 187.746009 58.61485 3.789778 1.17941 8.01398 1.96182 11.880725 1.49527 11.905484-1.42863 19.644491-11.82611 20.85184-26.9993.877269-11.0292-6.176887-20.93404-17.513112-24.4724-77.378821-24.15647-154.76316-48.29844-232.153016-72.41438-2.74471-.85774-5.58011-1.39099-7.714247-1.91547zm539.251331-959.428164c3.72095-1.249017 7.42817-1.990815 10.69262-3.68607 8.92705-4.642357 11.58927-13.628612 12.79931-22.994467 1.51529-11.695735-5.46459-22.212064-16.02796-25.480828-13.7812-4.268558-27.52654-8.655891-41.30215-12.947581-64.42551-20.076299-128.84551-40.193203-193.33157-60.063785-3.96295-1.222913-8.66855-1.364891-12.7031-.434708-9.5183 2.190801-14.6006 9.241279-17.10606 19.050472-3.95475 15.48905 1.89489 27.138449 16.46528 31.699665 72.66509 22.751045 145.32742 45.516521 217.99795 68.238632 7.3952 2.309577 14.85647 4.372831 22.51568 6.618599v.000071zm69.49543-190.973956c.0578-12.738963-6.33916-21.348447-17.33434-24.785365-33.58784-10.493125-67.18671-20.939843-100.77454-31.430068-43.96147-13.727155-87.88998-27.555683-131.90374-41.088652-4.1253-1.269249-8.94635-1.718459-13.11283-.82301-10.00239 2.147295-14.8262 9.873003-17.36739 19.879283-3.71266 14.608032 2.20842 26.48055 15.92079 30.792543 21.76759 6.850561 43.54346 13.677919 65.32209 20.493605 55.76248 17.447959 111.53047 34.884388 167.29577 52.320745 5.81384 1.816932 11.61396 2.219735 17.304-.515848 10.78897-5.181339 13.34664-15.439743 14.65019-24.843233z" fill="#E50303" fill-rule="evenodd"/>
</svg>
