<svg viewBox="0 0 1480 2000" xmlns="http://www.w3.org/2000/svg">
  <g fill="none" fill-rule="evenodd">
    <path d="M80 0h1320c44.18278 0 80 35.81722 80 80v440c0 44.18278-35.81722 80-80 80H80c-44.18278 0-80-35.81722-80-80V80C0 35.81722 35.81722 0 80 0z" fill="#E84F03"/>
    <path d="M80 700h710c44.18278 0 80 35.81722 80 80v440c0 44.18278-35.81722 80-80 80H80c-44.18278 0-80-35.81722-80-80V780c0-44.18278 35.81722-80 80-80z" fill="#FF6300"/>
    <path d="M80 1400h380c44.18278 0 80 35.81722 80 80v440c0 44.18278-35.81722 80-80 80H80c-44.18278 0-80-35.81722-80-80v-440c0-44.18278 35.81722-80 80-80z" fill="#FF9B00"/>
  </g>
</svg>
