<svg viewBox="0 0 1832 2000" xmlns="http://www.w3.org/2000/svg">
  <g fill="none" fill-rule="evenodd">
    <path d="M1204.18782 239.538742c0 57.202589-6.4742 113.07118-16.10088 161.158122-4.87805 24.35706-10.93081 49.006139-17.18931 71.441845l-21.4236 67.207566c-16.46258 49.769371-45.95321 103.198938-76.94375 144.629169-25.18998 33.675128-50.49278 67.131243-81.473369 95.78895l-48.707483 39.923676c-38.291024 28.743986-79.157127 55.64294-122.767546 75.765721-26.596981 12.271445-53.917372 19.605111-82.694542 28.979592-49.64659 16.167247-97.726895 21.513191-149.069188 28.189813-55.267961 7.190974-117.497926 4.632487-174.249212 4.864775l-101.257674-5.100382c-56.840883-6.295006-55.632985-1.383773-122.047453-17.985731-34.926166-8.727393-73.784636-21.732205-103.417953-36.61855-8.594657-4.320557-13.62867-7.383441-21.831757-11.846689-14.00365-7.622366-44.506388-33.940601-52.477186-36.346441-4.513025-1.360545-11.942923-3.062884-11.942923 1.503235 0 41.330679 56.296665 133.094408 88.21636 168.813667l46.912228 48.81036c3.862618 3.8228 4.831591 4.1115 8.71412 7.23743l44.552845 35.21487c25.196615 18.89165 52.994857 33.20723 80.016592 49.38111 7.081467 4.24092 13.612079 7.03833 21.114983 10.79144l15.583209 7.46309c81.904761 37.82313 160.630496 62.42906 249.278247 80.42475 16.250208 3.29849 38.891655 8.82695 55.387424 10.19745.716774 32.0657-3.547371 63.73983-8.86013 95.72258-7.635639 45.96316-19.857309 85.54173-32.656379 128.65107-16.761241 56.46922-59.379459 133.99037-94.73038 178.25452-17.195952 21.5331-32.779161 38.02555-53.970467 55.93164-5.130247 4.33715-9.497262 7.67214-14.883026 11.70732-65.213207 48.84685-88.219678 56.20043-170.695205 56.20043-41.635971 0-85.43554-9.0161-124.851501-20.49776-17.564295-5.12029-35.307782-14.38859-49.636636-23.04297-10.778165-6.51071-35.43388-25.06388-45.312759-27.36354L.172557 1738.7556c2.956695 28.22963 31.816824 87.30048 45.936618 112.66302 68.634479 123.27858 204.549528 148.32918 339.137216 148.32918 8.607931 0 17.663846.67032 26.102539-.48448 22.777501-3.1193 50.542558-2.95006 73.476024-6.29169 33.097727-4.82164 59.717936-9.09906 89.732869-16.62519 83.567281-20.95902 150.771528-57.4216 224.320558-94.75029l34.079973-19.09739c11.833416-7.01842 22.160279-12.26149 33.874233-19.29982l66.912228-39.44251c11.78364-7.09142 21.699021-12.96167 33.247055-19.93031l148.223-92.85217c5.77401-3.70002 10.12444-7.00182 15.94491-10.63879l163.77302-103.8958c38.47354-24.31061 79.5852-46.73968 121.45346-64.66899 7.0516-3.01975 11.64095-5.02738 18.73901-7.84802 42.34279-16.82429 78.15497-32.41082 128.89995-32.41082 71.83342 0 111.49494 23.66352 146.37797 80.51435 21.71893 35.39075 33.88418 85.16343 42.84386 127.32703 5.42227 25.49527 3.09275 22.53858 21.71894 35.00581l10.85448-22.82396c2.78746-8.36237 6.38129-16.94375 9.27162-26.17886 5.68773-18.16493 11.0204-34.24921 16.34644-52.77916 25.24307-87.82811 31.2726-190.41646-5.8238-276.29999-13.34328-30.89099-31.61772-59.5852-57.24241-81.02206l-2.89032-2.42575c-1.40037-1.21122-1.63597-1.43355-2.81069-2.50208-26.02621-23.69338-57.12958-39.96018-94.63414-52.49046-5.91671-1.97445-7.64228-2.04413-14.08661-3.6436-125.48864-31.11996-243.92235-10.85781-362.42575 36.23361-11.77369 4.67895-62.82396 27.70533-70.88768 28.37565 1.42692-5.34263 14.97594-28.66103 18.77219-34.40186 7.41663-11.21288 13.69836-21.86826 20.13274-33.04795 28.34246-49.23179 48.23627-94.98258 68.46524-147.78829 10.34345-26.98855 18.67928-52.13207 28.01394-80.116142 18.0355-54.079973 33.38311-111.030363 42.89696-173.35988 26.01294-170.426415 33.01145-418.745645-59.84072-571.481666-24.10818-39.654887-44.65903-63.351585-73.69835-96.47254-9.88884-11.279244-22.36602-20.215696-32.75262-31.063548-5.03401-5.262983-4.58934-7.300481-13.76804-7.506222-3.8593 16.585366-4.96101 17.166086-2.53858 34.444998 5.74084 40.942425 7.85798 80.228969 7.85798 121.546374l.00995-.016592z" fill="#367EC7"/>
    <path d="M507.555998 179.130579c-5.160113-4.990874-12.918533-18.679277-16.147337-26.510702-5.339306-12.948399 7.522814-15.075493 18.367347-20.76655 17.909408-9.401029 38.13174-18.247885 58.69255-24.672308 100.786461-31.478348 215.433881-9.971794 294.62751 55.108677 26.387921 21.689066 40.749958 28.11349 28.727393 43.162436-24.194458 30.29036-19.269952 20.985565-54.488137-8.538244-10.423096-8.737349-23.378131-17.902771-36.333167-25.737515-70.326862-42.508711-176.937116-46.636801-252.069023-10.897627-9.756097 4.642442-33.681765 18.563132-41.380454 18.851833h.003318zM273.572258 402.6149c0 83.149162 33.114319 180.381616 84.061722 245.644599 7.7186 9.885515 14.468227 16.436038 22.047454 25.810519 17.743487 21.947901 21.997677 28.020574-11.133234 53.957193l-83.763066 56.270118c-16.688237 9.912062-58.546541 34.070018-71.926332 45.063879-5.316078 4.370333-9.507217 6.477518-10.18749 14.630828 20.202423 10.691886 59.89713 7.091422 86.859134 7.091422 43.554007 0 81.151485-1.652564 124.141364-1.712295l120.494442-7.134561c33.160776-1.579559 81.387091-7.373486 112.948399-12.908578 72.51037-12.709474 151.156462-33.904098 214.428405-70.960677 24.317239-14.242575 62.050772-40.358387 80.97561-60.832919 3.159117-3.417952 4.509706-4.994192 7.745147-8.206404 5.322714-5.292849 11.173054-10.406504 15.881865-16.027875 14.604281-17.444831 28.654388-35.267961 40.564132-55.155135 62.69454-104.725402 82.14036-207.346939 49.89547-328.515016-11.33234-42.585034-36.32985-90.761573-62.598311-127.068193l-60.587357-67.038327c-15.815497-14.060063-57.278912-41.337316-76.651734-50.97395-90.628837-45.073835-178.267795-56.03783-278.281069-31.886512-37.501244 9.052597-73.25701 23.600465-106.28505 42.6149-35.337648 20.345114-83.401361 58.725734-107.506222 91.020408-56.124108 75.191638-91.116642 160.169239-91.116642 256.316576h-.006637z" fill="#F72222"/>
    <path d="M507.555998 179.130579c7.698689-.288701 31.624357-14.212709 41.380455-18.851833 75.131906-35.735856 181.74216-31.611084 252.069022 10.897627 12.958354 7.834744 25.910072 17.000166 36.333168 25.737515 35.214866 29.523809 30.293678 38.828604 54.488136 8.538244 12.019247-15.048946-2.339472-21.476688-28.727393-43.162436-79.193629-65.08047-193.841049-86.587025-294.627509-55.108677-20.564129 6.424423-40.783143 15.271279-58.692551 24.672308-10.844533 5.691057-23.706653 7.818151-18.367347 20.76655 3.228804 7.831425 10.987225 21.523146 16.147337 26.510702h-.003318z" fill="#FFF"/>
  </g>
</svg>
