<svg viewBox="0 0 1997 1730" xmlns="http://www.w3.org/2000/svg">
  <g fill="#3B3B3A" fill-rule="nonzero">
    <path d="M794.262982 1279.70202h447.923458l222.70515-385.736648h-447.00746L794.262982 1279.70202zm-45.470702-29.3412l220.756225-380.794784-221.982774-383.640937L527.50542 867.080738l221.28686 383.280082zm43.017388-795.901361l223.030612 385.451859h449.88689l-222.54073-385.451859H791.809668zm751.020022 412.621279l-269.43513 466.675332H734.524303L465.089175 867.080738l269.435128-466.675333h538.870257l269.43513 466.675333z"/>
    <path d="M1439.00369 54.45946H530.597291L74.958701 843.648649h421.391383v54.054054H81.530533L530.59729 1675.50914h906.710579l-207.64702-358.86523 46.78641-27.07161 206.66909 357.17512 451.35115-781.763118-450.5059-780.299105-207.52553 357.972425-46.76403-27.11027 209.33165-361.087893zm557.88005 810.524842L1497.71889 1729.5632H499.389168L.22431 864.984302 499.389168.405405h998.329722l499.16485 864.578897z"/>
  </g>
</svg>
