<svg viewBox="0 0 1732 2000" xmlns="http://www.w3.org/2000/svg">
  <g fill="#50E3C2" fill-rule="nonzero">
    <path d="M226.554268 621.436288v757.420292l639.771187 376.7595 639.771185-376.7595V621.436288L866.325455 244.676779 226.554268 621.436288zM923.616273 16.368565l752.671987 443.246481c34.45722 20.291766 55.60998 57.296705 55.60998 97.284905v886.492959c0 39.98821-21.15276 76.99314-55.60998 97.28491L923.616273 1983.9243c-35.35624 20.82119-79.225395 20.82119-114.581635 0L56.362652 1540.67782c-34.457225-20.29177-55.60998-57.2967-55.60998-97.28491V556.899951c0-39.9882 21.152755-76.993139 55.60998-97.284905l752.671986-443.24648c35.35624-20.821192 79.225395-20.821192 114.581635 0z"/>
    <path d="M167.298163 530.429381c-54.865083-29.627145-123.359566-9.167753-152.986715 45.697331-29.627141 54.865082-9.167755 123.359567 45.697328 152.986716L812.680762 1135.5563c33.478466 18.07837 73.810921 18.07837 107.289387 0l752.671981-406.442872c54.86509-29.627149 75.32447-98.121634 45.69733-152.986716-29.62715-54.865084-98.12163-75.324476-152.98671-45.697331L866.325455 907.904117 167.298163 530.429381z"/>
  </g>
</svg>
