<svg viewBox="0 0 2000 2000" xmlns="http://www.w3.org/2000/svg">
  <defs>
    <linearGradient x1="23.25%" y1="23.25%" x2="93.960432%" y2="93.960432%" id="a">
      <stop stop-color="#01A5F1" offset="0%"/>
      <stop stop-color="#01C6DA" offset="52%"/>
      <stop stop-color="#02E1C9" offset="100%"/>
    </linearGradient>
  </defs>
  <g fill-rule="nonzero" fill="none">
    <circle fill="url(#a)" cx="1000" cy="1000" r="1000"/>
    <path d="M299.71223 906.47482c66.47482 44.604317 481.402878 339.67626 799.67626 778.81295 6.4108 8.89948 17.59228 13.00173 28.23741 10.35971 12.88341-3.22755 21.48446-15.3729 20.2518-28.59712L1101.69065 1255c-.92179-8.89161 3.8844-17.39266 11.97841-21.18705l135.53957-68.34532c6.85775-3.44881 11.89282-9.6902 13.81295-17.12231l78.70504-306.079133c1.6076-6.273291-.3996-12.920471-5.21054-17.255606-4.81094-4.335135-11.63052-5.641749-17.70313-3.391876L884.208633 987.086331c-19.131898 7.138539-40.496695-2.015539-48.52518-20.791367-4.097406-9.544897-4.135366-20.346002-.105149-29.919462 4.030216-9.573461 11.781757-17.095358 21.472056-20.835934l515.46763-202.589928c4.78127-1.868078 8.56357-5.650379 10.43165-10.431654l126.79856-321.223022c7.19425-18.381295-12.55396-37.841727-29.56834-27.805755C1300 460 554.280576 786.258993 305.323741 865.28777c-9.14655 2.905773-15.350125 11.410205-15.323741 21.007194v1.834532c-.042631 7.356576 3.604178 14.244992 9.71223 18.345324z" fill="#FFF"/>
  </g>
</svg>
