<svg viewBox="0 0 1999 1999" xmlns="http://www.w3.org/2000/svg">
  <g fill="#E52905" fill-rule="nonzero">
    <path d="M892.105727 830.484581L1208.1674 496.237885c-64.07929-26.581497-134.30837-41.303964-207.99119-41.303964-76.149778 0-148.599117 15.726872-214.378853 44.00881h151.110132l-44.801762 331.54185zM747.427313 590.079295L758 511.920705C579.497797 600.960352 456.837004 785.23348 456.837004 998.255507c0 160.731273 69.8326 305.118943 180.76652 404.590303l10.599119-78.4229c-79.444934-85.63877-128.185022-200.12335-128.185022-326.167403 0-172.422908 90.9163-323.524229 227.409692-408.176212zM1110.15859 826.986784l-103.96476 111.594714 132.01762 209.436122C1178.63436 1110.81938 1204 1057.54185 1204 998.255507c0-72.017622-37.45374-135.083701-93.84141-171.268723z"/>
    <path d="M1293.90308 998.255507c0 91.356823-41.80616 172.792953-107.20704 226.660793l42.93392 68.10573c87.77092-68.38767 144.40528-174.87225 144.40528-294.766523 0-121.06608-57.71806-228.475771-146.94273-296.792952l-54.94273 58.951542c73.69163 53.356828 121.7533 139.911894 121.7533 237.84141z"/>
    <path d="M1343.11013 576.9163l-43.19824 46.378854c109.94714 87.982379 180.42291 223.198238 180.42291 374.960353 0 157.788543-76.19383 297.691633-193.68282 385.189423l33.79736 53.63877c135.19824-98.85463 223.04846-258.54626 223.04846-438.828193-.00881-170.008811-78.11454-321.718062-200.38767-421.339207zM626.317181 998.255507c0 62.546253 15.418502 121.409693 42.563876 173.198233l57.814978-427.744489c-62.193832 66.740088-100.378854 156.132159-100.378854 254.546256z"/>
    <path d="M999.198238.370044C447.559471.370044.370044 447.559471.370044 999.207048c0 551.638762 447.189427 998.828192 998.828194 998.828192 551.647572 0 998.837002-447.18943 998.837002-998.828192 0-551.647577-447.18943-998.837004-998.837002-998.837004zm.977972 1652.167396c-361.339206 0-654.255505-292.94273-654.255505-654.290744C345.920705 636.92511 638.837004 344 1000.17621 344c361.32159 0 654.25551 292.92511 654.25551 654.246696 0 361.348014-292.93392 654.290744-654.25551 654.290744z"/>
    <path d="M869.638767 1031.76211l-4.634362-.56387-56.748898 419.86784H699.911894c86.017621 57.16299 189.242291 90.53744 300.264316 90.53744 111.03965 0 214.22027-33.37445 300.26432-90.53744h-166.44934l-264.352423-419.30397z"/>
  </g>
</svg>
