<?xml version="1.0" encoding="UTF-8"?>
<svg width="1995px" height="1996px" viewBox="0 0 1995 1996" version="1.1" xmlns="http://www.w3.org/2000/svg" xmlns:xlink="http://www.w3.org/1999/xlink">
    <!-- Generator: Sketch 48.2 (47327) - http://www.bohemiancoding.com/sketch -->
    <title>Group 11</title>
    <desc>Created with Sketch.</desc>
    <defs></defs>
    <g id="Page-1" stroke="none" stroke-width="1" fill="none" fill-rule="evenodd">
        <g id="Group-11" transform="translate(-1.000000, -2.000000)" fill-rule="nonzero">
            <polygon id="Path-4" fill="#00A696" transform="translate(999.915118, 1653.987553) rotate(-270.000000) translate(-999.915118, -1653.987553) " points="822.857379 1653.98755 1343.35092 2174.4811 1260.16189 2257.67013 656.479313 1653.98755 1260.16189 1050.30497 1343.35092 1133.49401"></polygon>
            <polygon id="Path-4" fill="#69C623" transform="translate(999.915118, 346.182211) rotate(-270.000000) translate(-999.915118, -346.182211) " points="1176.97286 346.182211 656.479313 -174.311334 739.668346 -257.500367 1343.35092 346.182211 739.668346 949.864788 656.479313 866.675755"></polygon>
            <polygon id="Path-4" fill="#FABB00" points="1475.33999 1058.90841 1995.83353 1579.40196 1912.6445 1662.59099 1308.96192 1058.90841 1912.6445 455.225833 1995.83353 538.414866"></polygon>
            <polygon id="Path-4" fill="#FF502D" points="521.650125 1058.90841 1.15657995 538.414866 84.345613 455.225833 688.028191 1058.90841 84.345613 1662.59099 1.15657995 1579.40196"></polygon>
        </g>
    </g>
</svg>