<svg viewBox="0 0 2000 2000" xmlns="http://www.w3.org/2000/svg">
  <path d="M1000 2000C447.71525 2000 0 1552.28475 0 1000S447.71525 0 1000 0s1000 447.71525 1000 1000-447.71525 1000-1000 1000zm437.5-778.74388l-46.34144-14.11618c-8.94312 22.095-19.30893 43.37144-31.09756 63.82975-11.78875 20.45837-24.59344 38.66606-38.41469 54.62362-13.82119 16.36669-30.18281 29.97125-49.08531 40.81425-18.9025 10.84288-39.73563 16.26432-62.5 16.26432H747.256125l405.487755-460.311005v-19.639938L824.695125 493.964812h218.902435c30.89444 0 57.41857 1.32975 79.57313 3.989375 22.15462 2.659563 39.5325 7.058063 52.13419 13.195625 17.88625 7.365 38.21125 26.084063 60.97562 56.157875 22.76438 30.07375 50.40631 75.388438 82.92688 135.945188h49.39018L1341.76831 437.5H571.036563v61.988563L986.89025 1023.01556 562.5 1505.42144V1562.5h782.31706L1437.5 1221.25612z" fill="#1D62F0" fill-rule="evenodd"/>
</svg>
