<?xml version="1.0" encoding="UTF-8"?>
<svg width="2000px" height="2000px" viewBox="0 0 2000 2000" version="1.1" xmlns="http://www.w3.org/2000/svg" xmlns:xlink="http://www.w3.org/1999/xlink">
    <!-- Generator: Sketch 48.2 (47327) - http://www.bohemiancoding.com/sketch -->
    <title>music</title>
    <desc>Created with Sketch.</desc>
    <defs></defs>
    <g id="Page-1" stroke="none" stroke-width="1" fill="none" fill-rule="evenodd">
        <g id="music" fill="#FFC300" fill-rule="nonzero">
            <path d="M1165.65657,14.1414141 C1111.11111,5.05050505 1056.56566,0 1000,0 C447.474747,0 0,447.474747 0,1000 C0,1212.12121 66.6666667,1408.08081 178.787879,1570.70707 C247.474747,1469.69697 406.060606,1400 589.89899,1400 C716.161616,1400 830.30303,1433.33333 912.121212,1486.86869 L1165.65657,14.1414141 Z M1696.9697,283.838384 C1869.69697,665.656566 1718.18182,869.69697 1718.18182,869.69697 C1601.0101,517.171717 1261.61616,465.656566 1261.61616,465.656566 C1261.61616,465.656566 1038.38384,1668.68687 1038.38384,1683.83838 C1038.38384,1814.14141 900,1924.24242 712.121212,1957.57576 C803.030303,1984.84848 900,2000 1000,2000 C1552.52525,2000 2000,1552.52525 2000,1000 C2000,719.191919 1883.83838,465.656566 1696.9697,283.838384 Z" id="Shape"></path>
        </g>
    </g>
</svg>