<svg xmlns="http://www.w3.org/2000/svg" viewBox="0 0 36 30.24"><defs><style>.cls-1{fill:#378e43;}</style></defs><title>logo</title><g id="Layer_2" data-name="Layer 2"><g id="Layer_1-2" data-name="Layer 1"><path class="cls-1" d="M15.12,0A15.12,15.12,0,0,1,28,7.21l-2.33.32a13,13,0,1,0-1.77,17.16,14.69,14.69,0,0,0,1.77,1.25A15.11,15.11,0,1,1,15.12,0Z"/><path class="cls-1" d="M22.37,10.48v5.64c0,4.6,2.81,7.15,6.81,8.82,4-1.67,6.82-4.22,6.82-8.82V10.48l-6.82-.92Zm2.09,1.83,4.72-.64,4.73.64v3.8c0,3-1.42,5-4.73,6.55-3.3-1.57-4.72-3.56-4.72-6.55Z"/><path class="cls-1" d="M20.11,8.28A8.46,8.46,0,0,0,6.9,13.09H4.73A10.57,10.57,0,0,1,22.86,7.91Z"/><path class="cls-1" d="M14.23,23.55a8.69,8.69,0,0,0,.89.05A8.44,8.44,0,0,0,21,21.19,10.39,10.39,0,0,0,22.2,23a10.52,10.52,0,0,1-7.08,2.74,10.41,10.41,0,0,1-1.69-.15Z"/><path class="cls-1" d="M6.73,16.26a8.48,8.48,0,0,0,4.46,6.36l-.78,2a10.61,10.61,0,0,1-5.82-8.34Z"/></g></g></svg>