<svg viewBox="0 0 1995 1899" xmlns="http://www.w3.org/2000/svg">
  <g fill="#171D2C" fill-rule="nonzero">
    <path d="M1994.93048 516.786096c-32.08556-145.454545-96.25668-289.839572-213.90374-390.374331C1678.35294 38.71123 1539.31551.208556 1403.48663.208556 1120.06417-.860963 855.893048 119.994652 619.529412 261.171123 429.15508 386.304813 240.919786 528.550802 121.13369 721.064171 15.251337 881.491979-28.59893 1082.5615 21.66845 1267.58824c79.144384 245.9893 293.048128 425.66844 531.550801 530.48128 321.925134 154.01069 740.106949 137.96791 1016.042779-96.25669-89.83957 37.43316-180.74866 80.21391-281.28342 81.28343-200 4.27807-383.95722-91.97861-533.68984-210.69519-74.86631-69.51872-157.219251-136.8984-195.721925-232.08556-23.529412-71.65776-44.919786-144.38503-44.919786-220.32086 0-74.86631 40.641711-224.598928 40.641711-224.598928C618.459893 713.57754 759.636364 568.122995 923.272727 463.31016 1092.25668 357.427807 1280.49198 270.796791 1481.5615 242.989305c213.90374-36.363637 427.80748 85.561497 513.36898 273.796791z"/>
    <path d="M1950.0107 745.663102c-6.41712-117.647059-51.3369-234.224599-135.82888-320.855615-84.49198-80.213904-203.20856-109.090909-319.7861-112.299466-231.01604 23.529412-451.3369 130.481284-614.97326 287.700535-172.192513 165.775401-260.962567 405.347594-237.433155 638.502674 35.294117-117.64706 63.101604-239.57219 141.17647-340.106952 144.385027-196.791444 418.181815-309.090909 665.240645-255.614973 154.01069 40.641711 239.57219 189.304813 258.82353 332.620321 6.41711 74.866314 3.20855 149.732624-6.41712 224.598934-35.29411 194.6524-160.4278 372.19251-343.3155 466.31016 119.78609-24.59893 225.66845-83.42246 311.22994-163.63637 315.50802-269.51871 281.28343-757.219248 281.28343-757.219248z"/>
  </g>
</svg>
