<svg viewBox="0 0 1998 1998" xmlns="http://www.w3.org/2000/svg">
  <g fill="#00E0C7" fill-rule="nonzero">
    <path d="M1643.67816 1760.91954l-395.4023-395.4023-187.35632 72.41379 429.88506 429.88506c54.02299-31.03448 104.5977-66.66666 152.87356-106.89655m224.13793-271.26437l-429.88506-429.88506-72.41379 187.35633 395.4023 395.4023c40.22989-47.12644 75.86207-97.70115 106.89655-152.87357"/>
    <path d="M663.218391 1324.13793c-179.310345-179.31034-179.310345-471.264367 0-650.574712 179.310345-179.310344 471.264369-179.310344 650.574709 0l634.48276 634.482762c32.18391-97.70115 49.42529-201.14943 49.42529-309.195405C1997.70115 448.275862 1549.42529 0 998.850575 0 448.275862 0 0 448.275862 0 998.850575c0 550.574715 448.275862 998.850575 998.850575 998.850575 102.298855 0 199.999995-16.09195 293.103445-44.82759l-628.735629-628.73563z"/>
  </g>
</svg>
