<svg viewBox="0 0 1925 1500" xmlns="http://www.w3.org/2000/svg">
  <defs>
    <linearGradient x1="47.985624%" y1="100%" x2="52.719284%" y2="-37.188%" id="a">
      <stop stop-color="#1F5ABA" offset="0%"/>
      <stop stop-color="#02C6C0" offset="100%"/>
    </linearGradient>
  </defs>
  <path d="M1433.16667 1098.41667h182.5c-.02402-22.17604 13.04027-42.27725 33.31539-51.26036 20.27513-8.98311 43.94126-5.15569 60.35127 9.76036L1905.25 1234.58333c12.57298 11.39261 19.52703 27.71929 19.03011 44.67878-.49692 16.95949-8.39498 32.85099-21.61344 43.48789l-207.5 166.5c-14.65024 11.76907-34.75401 14.08746-51.69851 5.96192-16.9445-8.12554-27.72314-25.25322-27.71816-44.04525H771.333333C345.333333 1451.16667 0 1126.33333 0 725.583333 0 324.833333 345.333333 0 771.333333 0 1197.25 0 1542.58333 324.833333 1542.58333 725.583333c0 136.333334-40 263.833334-109.41666 372.833337zM767.5 1081c200.916667 0 363.83333-158.666667 363.83333-354.333333C1131.33333 531 968.333333 372.5 767.5 372.5c-201 0-363.916667 158.583333-363.916667 354.25S566.5 1081.08333 767.5 1081.08333V1081z" fill="url(#a)" fill-rule="evenodd"/>
</svg>
