<svg viewBox="0 0 1000 2000" xmlns="http://www.w3.org/2000/svg">
  <g fill="none" fill-rule="evenodd">
    <path d="M160.524 315.5057c85.7482 0 155.261-70.6284 155.261-157.7528C315.785 70.6285 246.2721 0 160.524 0 74.7758 0 5.263 70.6284 5.263 157.7529c0 87.1245 69.5128 157.7528 155.261 157.7528z" fill="#8C4DA6"/>
    <path d="M844.7246 1999.9853c85.7483 0 155.261-70.6284 155.261-157.7528 0-87.1245-69.5127-157.7529-155.261-157.7529-85.7482 0-155.2609 70.6284-155.2609 157.7529 0 87.1244 69.5127 157.7528 155.261 157.7528h-.0001z" fill="#009AD8"/>
    <path d="M224.201 821.127L939.98 264.9812c61.1879-47.5417 72.859-136.4805 26.0683-198.6504-46.7907-62.17-134.3246-74.0285-195.5125-26.4868L54.7568 595.9897c-61.188 47.5417-72.8591 136.4805-26.0684 198.6505 46.7907 62.1699 134.3246 74.0284 195.5125 26.4867l.0001.0001z" fill="#F8204F"/>
    <path d="M229.464 1387.9677l715.7792-556.1456c61.1878-47.5417 72.859-136.4806 26.0683-198.6505-46.7907-62.1699-134.3246-74.0284-195.5125-26.4867L60.02 1162.8304c-61.1879 47.5417-72.859 136.4806-26.0683 198.6505 46.7907 62.17 134.3246 74.0284 195.5125 26.4867l-.0002.0001z" fill="#FF8E40"/>
    <path d="M229.464 1970.8512l715.7792-556.1457c61.1878-47.5417 72.859-136.4805 26.0683-198.6505-46.7907-62.1699-134.3246-74.0284-195.5125-26.4867L60.02 1745.714c-61.1879 47.5417-72.859 136.4805-26.0683 198.6504 46.7907 62.17 134.3246 74.0285 195.5125 26.4868h-.0002z" fill="#00BF8D"/>
  </g>
</svg>
