<svg viewBox="0 0 2000 2000" xmlns="http://www.w3.org/2000/svg" xmlns:xlink="http://www.w3.org/1999/xlink">
  <defs>
    <circle id="a" cx="1000" cy="1000" r="1000"/>
  </defs>
  <g fill="none" fill-rule="evenodd">
    <mask id="b" fill="#fff">
      <use xlink:href="#a"/>
    </mask>
    <use fill="#FF0004" xlink:href="#a"/>
    <circle fill="#FFB000" mask="url(#b)" cx="1042.55319" cy="1042.55319" r="978.723404"/>
    <circle fill="#FF8300" mask="url(#b)" cx="1117.02128" cy="1127.65957" r="872.340426"/>
    <path d="M117.021269 1370.69116c156.330025 294.42092 466.085674 494.92864 822.672412 494.92864 514.088749 0 930.840019-416.75127 930.840019-930.840018 0-323.452717-164.9766-608.373084-415.374-775.205314 333.37458 156.035839 564.3084 494.502235 564.3084 886.906112 0 540.5276-438.18419 978.7118-978.71179 978.7118-426.894197 0-789.95255-273.31375-923.735033-654.50121z" fill="#FF8300" mask="url(#b)"/>
    <path d="M553.191489 1791.84234c122.405458 59.21165 259.74502 92.40784 404.837967 92.40784 514.094844 0 930.851064-416.75622 930.851064-930.851065 0-126.727848-25.32443-247.540858-71.1887-357.654434 124.23355 150.729914 198.84827 343.882829 198.84827 554.462949 0 481.78031-390.56011 872.34042-872.34042 872.34042-228.011669 0-435.591515-87.47902-591.008181-230.70571z" fill="#FF1F00" mask="url(#b)"/>
    <path d="M787.234043 1191.48936v425.53192H606.382979V776.595745h.034736c2.847087-217.874726 180.350854-393.617022 398.901435-393.617022 220.32636 0 398.93617 178.609808 398.93617 398.936171 0 127.365224-59.68622 240.789986-152.61418 313.829786 91.63231 72.02145 150.94337 183.30958 152.57944 308.51064h.03474v212.76596h-180.85106v-208.66421c-.65862-119.88492-98.04609-216.86771-218.08511-216.86771H787.234043zm218.085107-627.659573c-120.445079 0-218.085107 97.640028-218.085107 218.085107V1000h218.085107c120.44508 0 218.08511-97.640028 218.08511-218.085106 0-120.445079-97.64003-218.085107-218.08511-218.085107z" fill="#FFF"/>
  </g>
</svg>
