<svg viewBox="0 0 2000 2000" xmlns="http://www.w3.org/2000/svg" xmlns:xlink="http://www.w3.org/1999/xlink">
  <defs>
    <path d="M531.349628 0h937.300742C1762.10667 0 2000 237.893332 2000 531.349628v937.300742C2000 1762.10667 1762.10667 2000 1468.65037 2000H531.349628C237.893332 2000 0 1762.10667 0 1468.65037V531.349628C0 237.893332 237.893332 0 531.349628 0z" id="a"/>
  </defs>
  <g fill="none" fill-rule="evenodd">
    <rect width="2000" height="2000" rx="600" fill="#D7D7D7" fill-rule="nonzero"/>
    <mask id="b" fill="#fff">
      <use xlink:href="#a"/>
    </mask>
    <path fill="#AFAFAF" fill-rule="nonzero" mask="url(#b)" d="M1566.73192 705.730123l828.83713 1435.588047-1104.38945 637.61956-828.464068-1434.94186 540.472568 312.04198 563.54382-325.36218z"/>
    <g fill-rule="nonzero">
      <path fill="#AFAFAF" d="M1002.423435 976.085475l519.603721-297.124846 23.21112 40.590963-518.607936 296.555426v595.752016h-46.758767v-594.802112l-519.711599-299.67261 23.35699-40.507201z"/>
      <path d="M1003.188098 411.035717L488.528444 708.174606v594.277781l514.659654 297.138887 514.659658-297.138887V708.174606l-514.659658-297.138889zm552.916828 275.051101v638.453356l-552.916828 319.22668-552.916827-319.22668V686.086818l552.916827-319.22668 552.916828 319.22668z" fill="#989898"/>
    </g>
  </g>
</svg>
