<svg viewBox="0 0 1700 2000" xmlns="http://www.w3.org/2000/svg" xmlns:xlink="http://www.w3.org/1999/xlink">
  <defs>
    <path d="M312 40C253.333333 5.333333 181.333333 10.666667 101.333333 74.666667S26.666667 245.333333 26.666667 245.333333s461.333333 261.333334 490.666666 280c104 69.333334 8 184 8 184s130.666667-58.666666 256 13.333334C882.666667 781.333333 866.666667 872 866.666667 872c32-34.666667 106.666666-133.333333 77.333333-330.666667C933.333333 474.666667 928 394.666667 762.666667 296 685.333333 250.666667 312 40 312 40z" id="a"/>
    <path d="M312 40C253.333333 5.333333 181.333333 10.666667 101.333333 74.666667S26.666667 245.333333 26.666667 245.333333s461.333333 261.333334 490.666666 280c104 69.333334 8 184 8 184s130.666667-58.666666 256 13.333334C882.666667 781.333333 866.666667 872 866.666667 872c32-34.666667 106.666666-133.333333 77.333333-330.666667C933.333333 474.666667 928 394.666667 762.666667 296 685.333333 250.666667 312 40 312 40z" id="c"/>
    <path d="M312 40C253.333333 5.333333 181.333333 10.666667 101.333333 74.666667S26.666667 245.333333 26.666667 245.333333s461.333333 261.333334 490.666666 280c104 69.333334 8 184 8 184s130.666667-58.666666 256 13.333334C882.666667 781.333333 866.666667 872 866.666667 872c32-34.666667 106.666666-133.333333 77.333333-330.666667C933.333333 474.666667 928 394.666667 762.666667 296 685.333333 250.666667 312 40 312 40z" id="e"/>
    <path d="M312 40C253.333333 5.333333 181.333333 10.666667 101.333333 74.666667S26.666667 245.333333 26.666667 245.333333s461.333333 261.333334 490.666666 280c104 69.333334 8 184 8 184s130.666667-58.666666 256 13.333334C882.666667 781.333333 866.666667 872 866.666667 872c32-34.666667 106.666666-133.333333 77.333333-330.666667C933.333333 474.666667 928 394.666667 762.666667 296 685.333333 250.666667 312 40 312 40z" id="g"/>
    <path d="M312 40C253.333333 5.333333 181.333333 10.666667 101.333333 74.666667S26.666667 245.333333 26.666667 245.333333s461.333333 261.333334 490.666666 280c104 69.333334 8 184 8 184s130.666667-58.666666 256 13.333334C882.666667 781.333333 866.666667 872 866.666667 872c32-34.666667 106.666666-133.333333 77.333333-330.666667C933.333333 474.666667 928 394.666667 762.666667 296 685.333333 250.666667 312 40 312 40z" id="i"/>
  </defs>
  <g fill="none" fill-rule="evenodd">
    <path fill="#333" fill-rule="nonzero" opacity=".25" d="M1681.66667 1240l-344 269.33333V480h344z"/>
    <path d="M1335 1394.66667s-144 85.33333-373.333333 216c-64 32-157.333334 34.66666-216 0l-384-224c-58.666667-34.66667-157.333334-34.66667-216 0l-101.333334 58.66666c-58.666666 34.66667-58.666666 90.66667 0 125.33334l701.333334 402.66666c58.666666 34.66667 157.333333 34.66667 216 0 0 0 597.333333-322.66666 653.333333-381.33333 53.33333-56 5.33333-157.33333-74.66667-186.66667-80-24-176-29.33333-205.33333-10.66666zM948.333333 26.666667C889.666667-8 791-8 732.333333 26.666667L47 421.333333C-11.666667 456-11.666667 512 47 546.666667l101.333333 58.666666C207 640 255 666.666667 257.666667 666.666667c0 0 48 26.666666 109.333333 61.333333l669.33333 384C1095 1146.66667 1143 1117.33333 1143 1050.66667V933.333333c0-69.333333-48-152-109.33333-186.666666L681.666667 544C623 509.333333 623 453.333333 681.666667 421.333333L732.333333 392C791 357.333333 889.666667 360 951 394.666667L1321.66667 608c58.66666 34.666667 157.33333 34.666667 216 0L1639 549.333333c58.66667-34.666666 58.66667-90.666666 0-125.333333L948.333333 26.666667z" fill="#333" fill-rule="nonzero"/>
    <g transform="translate(748.333333 720)">
      <mask id="b" fill="#fff">
        <use xlink:href="#a"/>
      </mask>
      <path fill="#F40052" fill-rule="nonzero" mask="url(#b)" d="M533.333333 144L184 370.666667l-309.333333-181.333334L248-21.333333z"/>
    </g>
    <g transform="translate(748.333333 720)">
      <mask id="d" fill="#fff">
        <use xlink:href="#c"/>
      </mask>
      <path d="M704 256L394.666667 466.666667 168 336s0-64 80-146.666667c80-80 210.666667-80 210.666667-80L704 256z" fill="#FD8B00" fill-rule="nonzero" mask="url(#d)"/>
    </g>
    <g transform="translate(748.333333 720)">
      <mask id="f" fill="#fff">
        <use xlink:href="#e"/>
      </mask>
      <path d="M978.666667 450.666667l-440 146.666666L360 448s-2.666667-77.333333 80-160c80-80 178.666667-98.666667 178.666667-98.666667L797.333333 288l181.333334 162.666667z" fill="#FFAE00" fill-rule="nonzero" mask="url(#f)"/>
    </g>
    <g transform="translate(748.333333 720)">
      <mask id="h" fill="#fff">
        <use xlink:href="#g"/>
      </mask>
      <path d="M1061.33333 629.333333L672 776 493.333333 549.333333s32-98.666666 130.666667-178.666666c98.666667-80 242.666667-64 242.666667-64l194.666663 322.666666z" fill="#00BBB6" fill-rule="nonzero" mask="url(#h)"/>
    </g>
    <g transform="translate(748.333333 720)">
      <mask id="j" fill="#fff">
        <use xlink:href="#i"/>
      </mask>
      <path d="M882.666667 890.666667L493.333333 760l48-114.666667S656 546.666667 752 514.666667c128-42.666667 194.666667 0 194.666667 0l32 194.666666-96 181.333334z" fill="#00A598" fill-rule="nonzero" mask="url(#j)"/>
    </g>
    <path fill="#333" fill-rule="nonzero" opacity=".25" d="M1.666667 480h344v1029.33333h-344z"/>
  </g>
</svg>
