<?xml version="1.0" encoding="utf-8"?>
<!-- Generator: Adobe Illustrator 16.0.4, SVG Export Plug-In . SVG Version: 6.00 Build 0)  -->
<!DOCTYPE svg PUBLIC "-//W3C//DTD SVG 1.1//EN" "http://www.w3.org/Graphics/SVG/1.1/DTD/svg11.dtd">
<svg version="1.1" id="レイヤー_2" xmlns="http://www.w3.org/2000/svg" xmlns:xlink="http://www.w3.org/1999/xlink" x="0px"
	 y="0px" width="396.571px" height="297.351px" viewBox="0 0 396.571 297.351" enable-background="new 0 0 396.571 297.351"
	 xml:space="preserve">
<g>
	<g>
		<defs>
			<rect id="SVGID_1_" x="45.307" y="-3.011" width="300.957" height="299.362"/>
		</defs>
		<clipPath id="SVGID_2_">
			<use xlink:href="#SVGID_1_"  overflow="visible"/>
		</clipPath>
		<path clip-path="url(#SVGID_2_)" fill="#E6E6E6" d="M69.442,255.503c-2.121-3.369-5.114-5.551-9.542-5.551
			c-5.052,0-8.855,4.053-8.855,8.98c0,4.926,4.676,6.984,8.481,8.793l8.98,4.678c3.555,2.246,5.364,5.113,5.364,9.354
			c0,7.795-7.11,13.658-14.719,13.658c-6.547,0-11.661-4.055-13.844-10.102l2.619-1.186c1.996,4.988,5.675,8.48,11.35,8.48
			c6.174,0,11.6-4.863,11.6-11.102c0-5.299-5.426-7.545-9.479-9.541l-8.481-4.488c-3.119-1.934-4.865-4.68-4.865-8.42
			c0-6.984,4.989-11.91,12.036-11.91c4.74,0,9.23,2.555,11.475,6.609L69.442,255.503z"/>
		<path clip-path="url(#SVGID_2_)" fill="#E6E6E6" d="M98.938,294.791h-2.994v-47.02h8.295c3.68,0,7.234,0.248,10.165,2.744
			c2.868,2.432,4.241,5.986,4.241,9.666c0,3.367-1.31,7.107-3.929,9.291c-2.869,2.496-6.797,2.994-10.477,2.994h-5.301V294.791z
			 M104.364,269.66c3.055,0,5.799-0.375,8.231-2.557c2.058-1.871,3.056-4.303,3.056-7.047c0-2.932-1.184-5.863-3.555-7.609
			c-2.369-1.809-5.363-1.871-8.231-1.871h-4.927v19.084H104.364z"/>
		<rect x="139.721" y="247.771" clip-path="url(#SVGID_2_)" fill="#E6E6E6" width="2.994" height="47.021"/>
		<polygon clip-path="url(#SVGID_2_)" fill="#E6E6E6" points="209.629,296.351 170.154,254.38 170.154,294.792 167.161,294.792 
			167.161,247.146 206.637,288.804 206.637,247.769 209.629,247.769 		"/>
		<path clip-path="url(#SVGID_2_)" fill="#E6E6E6" d="M234.074,247.771h8.48c6.861,0,12.287,1.121,17.463,5.924
			c4.926,4.615,7.482,10.914,7.482,17.648c0,6.486-2.494,12.66-7.234,17.213c-5.176,4.988-10.727,6.236-17.711,6.236h-8.48V247.771z
			 M242.492,291.986c6.174,0,11.289-1.248,15.779-5.676c3.992-3.992,6.236-9.354,6.236-14.967c0-5.986-2.369-11.6-6.799-15.652
			c-4.488-4.055-9.354-5.115-15.217-5.115h-5.424v41.41H242.492z"/>
		<polygon clip-path="url(#SVGID_2_)" fill="#E6E6E6" points="292.07,291.986 304.045,291.986 304.045,294.792 289.076,294.792 
			289.076,247.771 292.07,247.771 		"/>
		<polygon clip-path="url(#SVGID_2_)" fill="#E6E6E6" points="326.807,250.576 326.807,267.664 345.764,267.664 345.764,270.47 
			326.807,270.47 326.807,291.986 346.264,291.986 346.264,294.791 323.812,294.791 323.812,247.771 346.264,247.771 
			346.264,250.576 		"/>
	</g>
	<g>
		<defs>
			<path id="SVGID_3_" d="M131.821,37.636c0,40.895,138.653,30.73,162.214,87.436c2.205-8.203,3.387-16.826,3.387-25.726
				c0-53.193-43.633-98.842-99.264-98.842C154.823,0.503,131.821,21.694,131.821,37.636"/>
		</defs>
		<clipPath id="SVGID_4_">
			<use xlink:href="#SVGID_3_"  overflow="visible"/>
		</clipPath>
		
			<linearGradient id="SVGID_5_" gradientUnits="userSpaceOnUse" x1="47.9971" y1="298.3403" x2="48.9971" y2="298.3403" gradientTransform="matrix(-100.3674 248.418 248.418 100.3674 -69046.2422 -41891.25)">
			<stop  offset="0" style="stop-color:#5AFFFF"/>
			<stop  offset="0.2" style="stop-color:#6E96FF"/>
			<stop  offset="0.52" style="stop-color:#FF7832"/>
			<stop  offset="0.8" style="stop-color:#2800C8"/>
			<stop  offset="1" style="stop-color:#00004B"/>
		</linearGradient>
		<polygon clip-path="url(#SVGID_4_)" fill="url(#SVGID_5_)" points="340.688,17.984 274.182,182.589 88.555,107.591 
			155.06,-57.014 		"/>
	</g>
	<g>
		<defs>
			<path id="SVGID_6_" d="M99.551,99.444c0,53.194,43.632,98.84,99.263,98.84c43.336,0,66.336-21.189,66.336-37.131
				c0-40.894-138.653-30.73-162.214-87.436C100.733,81.921,99.551,90.544,99.551,99.444"/>
		</defs>
		<clipPath id="SVGID_7_">
			<use xlink:href="#SVGID_6_"  overflow="visible"/>
		</clipPath>
		
			<linearGradient id="SVGID_8_" gradientUnits="userSpaceOnUse" x1="47.9966" y1="298.3315" x2="48.9966" y2="298.3315" gradientTransform="matrix(-100.3674 248.418 248.418 100.3674 -69046.2422 -41891.25)">
			<stop  offset="0" style="stop-color:#5AFFFF"/>
			<stop  offset="0.2" style="stop-color:#6E96FF"/>
			<stop  offset="0.52" style="stop-color:#FF7832"/>
			<stop  offset="0.8" style="stop-color:#2800C8"/>
			<stop  offset="1" style="stop-color:#00004B"/>
		</linearGradient>
		<polygon clip-path="url(#SVGID_7_)" fill="url(#SVGID_8_)" points="308.418,91.198 241.912,255.804 56.285,180.804 122.79,16.2 		
			"/>
	</g>
</g>
</svg>
