<svg viewBox="0 0 1770 1978" xmlns="http://www.w3.org/2000/svg">
  <defs>
    <linearGradient x1="-.000139%" y1="50.000035%" x2="99.999866%" y2="50.000035%" id="a">
      <stop stop-color="#6C3D94" offset="0%"/>
      <stop stop-color="#A13469" offset="100%"/>
    </linearGradient>
  </defs>
  <path d="M1315.97375 1962.67795c-78.54971-32.21995-137.96591-91.62582-172.20155-162.11278-43.29072-71.49998-118.81173-224.55768-258.782982-309.14411-105.725278-63.43723-396.738552-31.20694-440.039608-49.33777-90.623144-37.254-134.926873-140.97393-97.672874-231.59707 20.146516-49.33778 130.90584-99.68856 177.225255-115.80371 0 0 561.880029-161.110108 561.880029-335.317002 0-86.591774-66.45559-108.753975-193.330061-139.960918-184.285321-44.30373-483.340662 42.288044-483.340662 42.288044v-1.002675c-65.45292 15.102135-135.950222 12.083775-202.395479-15.112471C38.142968 576.103534-42.412086 383.776146 26.059193 215.616307 95.533147 46.453794 287.870872-34.101261 456.030711 34.359682c79.542043 32.219954 138.947907 91.636155 173.183547 162.12312 42.298381 71.489638 115.814042 224.547343 255.77496 308.131094 105.735616 64.439908 398.754242 32.209617 442.055292 50.350785 91.63616 37.253999 134.92687 140.963592 97.67288 231.586736-20.13618 50.350786-131.90852 100.701571-179.24094 116.816716 0 0-559.864351 140.963597-559.864351 334.303997 0 86.60211 66.465931 108.75397 194.343074 139.97125 184.274987 44.30373 483.340667-42.29838 483.340667-42.29838l-1.00268 1.00267c65.44258-16.1048 135.92955-12.07343 203.39815 15.11248 168.17018 69.47395 248.72523 261.81167 180.24362 429.97151-52.69725 128.30096-176.04686 205.63092-305.93968 205.63092-41.36807 0-83.39769-7.84567-124.0215-24.38463" transform="matrix(1 0 0 -1 -.820159 1987.123908)" fill="url(#a)" fill-rule="nonzero"/>
</svg>
