<svg viewBox="0 0 1999 1999" xmlns="http://www.w3.org/2000/svg">
  <g fill-rule="nonzero" fill="none">
    <path d="M999.409692 0C448.325991 0 0 448.317181 0 999.400881c0 551.066079 448.334802 999.409689 999.409692 999.409689 551.057268 0 999.383258-448.34361 999.383258-999.409689C1998.79295 448.317181 1550.46696 0 999.409692 0zm0 1935.09251c-515.938326 0-935.69163-419.7533-935.69163-935.682818 0-515.947137 419.753304-935.69163 935.69163-935.69163 515.929518 0 935.674008 419.744493 935.674008 935.69163 0 515.929518-419.74449 935.682818-935.674008 935.682818z" fill="#1D1D1B"/>
    <circle fill="#008CD2" cx="999.409692" cy="443.506608" r="202.30837"/>
    <circle fill="#008CD2" cx="476.484581" cy="1223.62996" r="202.30837"/>
    <path d="M513.453744 948.625551c16.519824-159.22467 109.885463-295.876652 242.185023-372.378855-21.515419-39.436123-33.762115-84.660793-33.762115-132.740088 0-5.559471.211454-11.07489.537445-16.546256-203.947137 99.092511-347.303965 304.008811-358.273128 542.907489 34.352423-15.23348 72.343612-23.770925 112.352423-23.770925 12.546256 0 24.863436.9163 36.960352 2.528635zM1485.20705 947.524229c9.26872-.933921 18.64317-1.427313 28.14097-1.427313 43.55066 0 84.7489 10.061674 121.40969 27.920705-9.48899-240.660793-153.2511-447.39207-358.36123-547.057269.29956 5.471366.51982 10.986785.51982 16.546256 0 48.079295-12.23789 93.303965-33.74449 132.740088 132 76.343612 225.20704 212.528634 242.03524 371.277533zM1291.73568 1390.64317C1210.15859 1451.7533 1108.94273 1488 999.409692 1488c-112.14978 0-215.497798-38.07048-298.044053-101.84141-29.797357 41.15419-70.563877 73.81498-118.052864 93.64758 111.629956 96.80176 257.083701 155.61233 416.105727 155.61233 157.691628 0 302.035238-57.81498 413.312778-153.18061-48.39648-18.85463-90.21146-50.81939-120.9956-91.59472z" fill="#1D1D1B"/>
    <circle fill="#008CD2" cx="1513.34802" cy="1223.61233" r="202.30837"/>
    <path d="M999.409692 134.590308c-476.872247 0-864.828194 387.947137-864.828194 864.810573 0 476.872249 387.955947 864.810569 864.828194 864.810569 476.845818 0 864.801758-387.93832 864.801758-864.810569 0-476.863436-387.96475-864.810573-864.801758-864.810573zM1513.34802 1501.14537c-8.39648 0-16.71366-.44933-24.92511-1.1718-126.29956 123.40969-298.92511 199.60352-489.013218 199.60352-190.555066 0-363.541851-76.55506-489.903084-200.46696-10.837004 1.29516-21.832599 2.02643-33.013216 2.02643-153.268722 0-277.53304-124.2555-277.53304-277.51541 0-85.93833 39.07489-162.74009 100.405287-213.62996-.052864-3.53304-.132159-7.05727-.132159-10.590309 0-293.744493 181.859031-545.814978 438.889868-649.568282 38.431718-107.180617 140.881057-183.84141 261.277533-183.84141 120.378859 0 222.837009 76.669604 261.259909 183.84141 257.03084 103.753304 438.89868 355.814978 438.89868 649.568282 0 6.105729-.07929 12.185019-.22907 18.246699 56.21145 50.77533 91.55066 124.22907 91.55066 205.97357 0 153.26872-124.25551 277.52422-277.53304 277.52422z" fill="#008CD2"/>
  </g>
</svg>
