<svg viewBox="0 0 1948 1993" xmlns="http://www.w3.org/2000/svg">
  <g fill="none" fill-rule="evenodd">
    <path d="M973.782772 1992.15716c-41.593218.2932-83.68864-11.74518-120.512627-37.17708-20.880216-14.42058-38.970215-32.51064-53.390759-53.39092L50.454446 816.456483c-89.33586-129.354197-56.894912-306.63774 72.458887-395.973876a284.644138 284.644138 0 0 1 28.128466-17.11228L355.56823 294.625468c-68.795568 53.186462-84.695352 151.5332-34.688847 223.940307l534.010385 773.222355c10.300388 14.91449 23.221816 27.83596 38.136256 38.13638 24.732632 17.08119 52.794435 25.70373 80.756748 26.495v635.73765z" fill="#54697B"/>
    <path d="M973.782772 908.577437c-16.990605.535977-34.296041-4.162621-49.35691-14.564137-8.202942-5.665214-15.309727-12.771999-20.974941-20.974941L541.850023 349.458583c-37.615099-54.464757-23.955752-129.11023 30.509005-166.725329a119.850015 119.850015 0 0 1 11.843565-7.205148L862.237566 27.699873C897.08422 9.172278 935.473406.117211 973.782772.53467v908.042767z" fill="#79B4E1"/>
    <g>
      <path d="M973.78277 1992.15716c41.593218.2932 83.68864-11.74518 120.512627-37.17708 20.880216-14.42058 38.970215-32.51064 53.390759-53.39092l749.42494-1085.132677c89.33586-129.354197 56.894912-306.63774-72.458887-395.973876a284.644138 284.644138 0 0 0-28.128466-17.11228l-204.526431-108.744859c68.795568 53.186462 84.695352 151.5332 34.688847 223.940307l-534.010385 773.222355c-10.300388 14.91449-23.221816 27.83596-38.136256 38.13638-24.732632 17.08119-52.794435 25.70373-80.756748 26.495v635.73765z" fill="#44505B"/>
      <path d="M973.78277 908.577437c16.990605.535977 34.296041-4.162621 49.35691-14.564137 8.202942-5.665214 15.309727-12.771999 20.974941-20.974941l361.600898-523.579776c37.615099-54.464757 23.955752-129.11023-30.509005-166.725329a119.850015 119.850015 0 0 0-11.843565-7.205148L1085.327976 27.699873C1050.481322 9.172278 1012.092136.117211 973.78277.53467v908.042767z" fill="#228CCF"/>
    </g>
  </g>
</svg>
