<svg viewBox="0 0 1719 1997" xmlns="http://www.w3.org/2000/svg">
  <defs>
    <linearGradient x1="-19.79953%" y1="-13.206168%" x2="86.018585%" y2="-13.206168%" id="a">
      <stop stop-color="#8A02E4" offset="0%"/>
      <stop stop-color="#7900F4" offset="33%"/>
      <stop stop-color="#AF00BB" offset="68%"/>
      <stop stop-color="#E30084" offset="100%"/>
    </linearGradient>
    <linearGradient x1="13.572895%" y1="57.547146%" x2="123.165922%" y2="41.056722%" id="b">
      <stop stop-color="#FF8802" offset="0%"/>
      <stop stop-color="#FF6A12" offset="18%"/>
      <stop stop-color="#FF4029" offset="61%"/>
      <stop stop-color="#FF0649" offset="100%"/>
    </linearGradient>
  </defs>
  <g fill-rule="nonzero" fill="none">
    <path d="M653.601463 1647.86106l205.630713 351.73675L1718.46435 507.824497h-192.46801s-59.5978-4.972577-56.38025-52.906764c1.3937-15.737504 8.72795-30.353711 20.51188-40.877514l152.43144-134.369287c5.24594-4.857864 8.15429-11.733821 7.98644-18.881581-.16785-7.14776-3.39577-13.879616-8.86395-18.485878-5.1134-4.276962-11.72641-6.328432-18.36266-5.696409-6.63625.632024-12.74313 3.894913-16.95727 9.060212l-160.18281 187.458867c-4.32899 5.24499-10.56745 8.551428-17.33821 9.189402-6.77075.637974-13.51702-1.444979-18.74954-5.789037-5.50444-4.601933-8.82454-11.302978-9.15127-18.470256-.32673-7.167277 2.3699-14.142606 7.4328-19.22627l66.54479-66.54479c2.63018-2.626723 4.1081-6.191399 4.1081-9.908592 0-3.717193-1.47792-7.28187-4.1081-9.908593-2.76712-2.762689-6.56099-4.24629-10.46818-4.093611-3.90719.152678-7.57372 1.927805-10.11683 4.897999L1340.40219 446.06947s-34.36928 41.243144 0 75.612431c0 0 23.69287 29.652651-.43875 55.868373-6.3725 6.500919-10.57483 14.816168-12.02925 23.80256-2.3766 18.281535 5.3382 44.058501 67.45886 44.058501h89.36015L859.232176 1731.51737 687.38574 1429.06764s-27.495429-54.84461 20.621573-96.234l19.159049-23.51006c8.580244-10.00958 8.006693-24.93786-1.316271-34.25959-4.71906-4.72899-11.125437-7.38653-17.806215-7.38653-6.680778 0-13.087155 2.65754-17.806216 7.38653l-26.873857 27.09323c-4.318792 4.35632-10.292801 6.66032-16.4183 6.33204-6.1255-.32827-11.819049-3.25755-15.647514-8.0505l-.365631-.4022c-7.171367-8.76664-6.490144-21.55146 1.572212-29.5064 36.855576-36.56307 136.380256-136.12431 179.15905-178.93967 5.144204-5.14002 7.885467-12.20909 7.551473-19.47346-.333995-7.26437-3.712351-14.05208-9.306501-18.69838-10.804749-9.01653-26.833382-7.74983-36.087751 2.85192l-203.436929 235.31992s-54.844607 54.84461-20.621572 151.22487l3.985375 9.1042a1881.974164 1881.974164 0 0 0 99.853748 195.9415z" fill="url(#a)" transform="translate(0 -3)"/>
    <path d="M783.912249 1179.63254l-17.294333 20.76783c-2.541207 3.04034-3.549743 7.0772-2.73702 10.95546.812723 3.87826 3.357152 7.17056 6.90521 8.93485l3.656307 1.82815c5.377196 2.71484 11.917268 1.34916 15.758684-3.29068l17.294333-20.76782c2.541207-3.04034 3.549743-7.07721 2.737019-10.95546-.812723-3.87826-3.357151-7.17057-6.90521-8.93485l-3.656307-1.82816c-5.380895-2.68647-11.902528-1.32465-15.758683 3.29068" fill="#8A02E4"/>
    <path d="M961.608775 699.010969l-22.815356 27.38574c-3.358435 4.009335-4.694165 9.336702-3.624619 14.456265 1.069547 5.119562 4.426389 9.466586 9.109079 11.796021l4.789763 2.413162c7.104064 3.554496 15.720192 1.752529 20.804387-4.351005l22.815357-27.385741c3.358434-4.009335 4.694165-9.336701 3.624618-14.456264-1.069546-5.119562-4.426389-9.466587-9.109079-11.796021l-4.789762-2.413163c-7.104065-3.554496-15.720193-1.752529-20.804388 4.351006z" fill="#FF6C11"/>
    <path d="M1237.18464 276.561243l-19.63437 23.510055c-2.90438 3.438931-4.0634 8.023709-3.1422 12.429736.92119 4.406027 3.81997 8.142417 7.85884 10.129679l4.13163 2.084095c6.0733 3.085318 13.47249 1.569091 17.84278-3.656307l19.5978-23.510055c2.95073-3.437041 4.14225-8.047395 3.22636-12.483743-.91589-4.436348-3.8358-8.19789-7.90643-10.185361l-4.13163-2.047532c-6.08972-3.068556-13.49193-1.521373-17.84278 3.729433" fill="#FF4029"/>
    <path d="M0 514.844607h859.232176s96.234003 6.873857 192.468004-61.864717l54.44242-43.290676c8.38572-6.763446 20.35285-6.763446 28.73857 0 5.08362 4.056633 8.19433 10.090015 8.55045 16.584062.35613 6.494046-2.07618 12.8314-6.68573 17.419594l-13.19927 13.235832c-4.29239 4.28116-6.55498 10.189879-6.21986 16.243025.33512 6.053147 3.23614 11.675991 7.97489 15.457158 8.84903 7.095707 21.70494 6.019025 29.25045-2.449726l419.52468-470.566728c11.84733-13.306634 31.68846-15.849169 46.50823-5.95978 8.87245 5.917905 14.64032 15.487225 15.72954 26.096448 1.08921 10.609222-2.61393 21.1509-10.09883 28.748159l-450.7861 457.221206-68.73858 61.864717s-41.24314 48.117002-75.61243 0c0 0-27.49543-27.49543-61.864716 20.621572 0 0-27.49543 41.243145-130.603291 41.243145H233.711152l240.585009 405.557582s41.243144 48.11701 89.360146 0l41.243145-48.117s13.747714-13.747712 27.495429 0c0 0 13.747715 27.49543 41.243145 13.74772l24.131627-17.257772c15.894052-11.325642 29.941722-25.040311 41.645338-40.658135l83.254113-113.126143c8.928098-11.910521 25.734916-14.508677 37.842779-5.850091 6.560361 4.680134 10.726376 12.012184 11.388614 20.043587.662239 8.031403-2.246529 15.946812-7.951685 21.638314l-52.723949 52.723949-219.963437 233.711151s-71.700183 71.62706-155.246801 39.78062c-27.391832-10.85883-50.251138-30.75107-64.789762-56.38025L0 514.844607z" fill="url(#b)" transform="translate(0 -3)"/>
  </g>
</svg>
