<svg viewBox="0 0 1989 1989" xmlns="http://www.w3.org/2000/svg">
  <g fill="#01C4C2" fill-rule="nonzero">
    <path d="M1888.5 560.6875L1776 1213.25c-21.02225 122.27155-128.53481 210.6282-252.5625 207.5625-128.78068-3.08199-234.13701-103.51412-243.375-232l-44.9375-675.625c-1.89678-27.35571-24.64111-48.577618-52.0625-48.577618S1132.89678 485.83179 1131 513.1875l-66.625 984.1875c-9.20754 136.19089-122.373219 241.95244-258.875 241.9375-136.954632.00704-250.326284-106.44136-258.9375-243.125L500.25 757.3125c-1.843074-24.130164-21.663979-42.941814-45.857461-43.522457-24.193482-.580644-44.894006 17.258492-47.892539 41.272457l-71.1875 636.5625c-7.269158 65.57937-26.862771 129.195-57.75 187.5l-34.6875 65.5625c326.306066 377.25901 881.71781 454.17386 1298.26545 179.78714C1957.6881 1550.08792 2106.2922 1009.42637 1888.5 560.6875z"/>
    <path d="M117.6875 1404.5a296.312443 296.312443 0 0 0 16.625-66.75L212.75 728.875c14.441942-121.949429 119.058609-213.040265 241.835332-210.568576C577.362055 520.778114 678.227839 616.005636 687.75 738.4375l64.8125 758c2.120967 27.51136 25.063257 48.75301 52.65625 48.75301s50.535283-21.24165 52.65625-48.75301L942.3125 500.25c10.893351-129.940006 119.60424-229.818139 250-229.6875 131.70978.01611 240.93469 101.977565 250 233.375l46.0625 666.75c1.34278 21.54072 18.66094 38.63073 40.21758 39.68774 21.55663 1.05701 40.46368-14.25672 43.90742-35.56274l148.0625-858.625C1383.65814-45.004441 832.610327-103.9349 426.944948 177.844738 21.279568 459.624376-115.860701 996.57786 105 1438.375"/>
  </g>
</svg>
